<?xml version="1.0" encoding="UTF-8"?>
<svg width="331px" height="136px" viewBox="0 0 331 136" version="1.1" xmlns="http://www.w3.org/2000/svg" xmlns:xlink="http://www.w3.org/1999/xlink">
    <!-- Generator: Sketch 61.2 (89653) - https://sketch.com -->
    <title>Group 27</title>
    <desc>Created with Sketch.</desc>
    <defs>
        <polygon id="path-1" points="0.0004 0.143 42.0514 0.143 42.0514 90.8697 0.0004 90.8697"></polygon>
        <polygon id="path-3" points="0.4401 0.143 51.792 0.143 51.792 90.87 0.4401 90.87"></polygon>
        <polygon id="path-5" points="0.9308 0.6932 24.7618 0.6932 24.7618 28 0.9308 28"></polygon>
        <polygon id="path-7" points="0 136.857 330.792 136.857 330.792 1 0 1"></polygon>
    </defs>
    <g id="HeaderZ" stroke="none" stroke-width="1" fill="none" fill-rule="evenodd">
        <g id="HeaderZ_07" transform="translate(-1236.000000, -119.000000)">
            <g id="Group-27" transform="translate(1236.000000, 118.000000)">
                <g id="Group-3" transform="translate(0.000000, 0.857000)">
                    <mask id="mask-2" fill="white">
                        <use xlink:href="#path-1"></use>
                    </mask>
                    <g id="Clip-2"></g>
                    <path d="M12.9974,48.8197 L12.9974,77.8727 L18.6044,77.8727 C21.2364,77.8727 23.2974,77.4897 24.7844,76.7257 C26.2694,75.9617 27.3964,74.8997 28.1614,73.5397 C28.9264,72.1827 29.3924,70.5677 29.5624,68.6977 C29.7314,66.8307 29.8174,64.7917 29.8174,62.5817 C29.8174,60.2877 29.6904,58.2927 29.4354,56.5927 C29.1814,54.8947 28.6714,53.4507 27.9064,52.2597 C27.0564,51.0717 25.9094,50.2017 24.4664,49.6477 C23.0204,49.0967 21.1084,48.8197 18.7314,48.8197 L12.9974,48.8197 Z M12.9974,12.3757 L12.9974,37.3517 L18.8594,37.3517 C23.1914,37.3517 26.1014,36.2687 27.5884,34.1017 C29.0734,31.9357 29.8174,28.7717 29.8174,24.6087 C29.8174,20.5307 28.9894,17.4727 27.3334,15.4337 C25.6764,13.3957 22.6824,12.3757 18.3504,12.3757 L12.9974,12.3757 Z M0.0004,90.8697 L0.0004,0.1427 L18.9864,0.1427 C23.1474,0.1427 26.6954,0.7797 29.6264,2.0547 C32.5584,3.3287 34.9564,5.0287 36.8264,7.1517 C38.6934,9.2757 40.0314,11.7187 40.8404,14.4787 C41.6464,17.2397 42.0514,20.1077 42.0514,23.0797 L42.0514,26.3927 C42.0514,28.8577 41.8594,30.9387 41.4764,32.6367 C41.0954,34.3367 40.5214,35.8217 39.7574,37.0967 C38.3114,39.4757 36.1034,41.5147 33.1314,43.2127 C36.1884,44.6587 38.4384,46.7807 39.8844,49.5847 C41.3274,52.3877 42.0514,56.2107 42.0514,61.0527 L42.0514,66.1497 C42.0514,74.1357 40.1174,80.2517 36.2534,84.4987 C32.3864,88.7477 26.2064,90.8697 17.7124,90.8697 L0.0004,90.8697 Z" id="Fill-1" fill="#CE1E25" mask="url(#mask-2)"></path>
                </g>
                <polygon id="Fill-4" fill="#CE1E25" points="54.2825 91.727 54.2825 1 93.0195 1 93.0195 13.233 67.2805 13.233 67.2805 39.865 89.7075 39.865 89.7075 52.098 67.2805 52.098 67.2805 78.729 93.0195 78.729 93.0195 91.727"></polygon>
                <polygon id="Fill-6" fill="#CE1E25" points="101.429 91.727 101.429 1 114.427 1 114.427 78.729 140.166 78.729 140.166 91.727"></polygon>
                <polygon id="Fill-8" fill="#CE1E25" points="148.5765 91.727 148.5765 1 161.5735 1 161.5735 78.729 187.3135 78.729 187.3135 91.727"></polygon>
                <polygon id="Fill-10" fill="#CE1E25" points="195.7229 91.727 195.7229 1 234.4599 1 234.4599 13.233 208.7209 13.233 208.7209 39.865 231.1479 39.865 231.1479 52.098 208.7209 52.098 208.7209 78.729 234.4599 78.729 234.4599 91.727"></polygon>
                <polygon id="Fill-12" fill="#CE1E25" points="238.6644 91.727 238.6644 80.259 263.1304 13.233 239.9384 13.233 239.9384 1 277.2744 1 277.2744 11.322 252.2994 79.494 277.2744 79.494 277.2744 91.727"></polygon>
                <g id="Group-16" transform="translate(279.000000, 0.857000)">
                    <mask id="mask-4" fill="white">
                        <use xlink:href="#path-3"></use>
                    </mask>
                    <g id="Clip-15"></g>
                    <path d="M32.5511,59.141 L26.1801,26.266 L25.9251,26.266 L19.5541,59.141 L32.5511,59.141 Z M0.4401,90.87 L20.7001,0.143 L31.5311,0.143 L51.7921,90.87 L38.7951,90.87 L34.9721,71.374 L17.2601,71.374 L13.4371,90.87 L0.4401,90.87 Z" id="Fill-14" fill="#CE1E25" mask="url(#mask-4)"></path>
                </g>
                <g id="Group-19" transform="translate(52.000000, 108.857000)">
                    <mask id="mask-6" fill="white">
                        <use xlink:href="#path-5"></use>
                    </mask>
                    <g id="Clip-18"></g>
                    <polygon id="Fill-17" fill="#CE1E25" mask="url(#mask-6)" points="5.0208 0.6932 12.8648 23.9472 20.6168 0.6932 24.7618 0.6932 14.7978 28.0002 10.8758 28.0002 0.9308 0.6932"></polygon>
                </g>
                <mask id="mask-8" fill="white">
                    <use xlink:href="#path-7"></use>
                </mask>
                <g id="Clip-21"></g>
                <polygon id="Fill-20" fill="#CE1E25" mask="url(#mask-8)" points="90.982 136.857 94.718 136.857 94.718 109.55 90.982 109.55"></polygon>
                <polygon id="Fill-22" fill="#CE1E25" mask="url(#mask-8)" points="110.9729 109.5502 130.7879 109.5502 130.7879 112.8962 114.5789 112.8962 114.5789 121.1862 129.5619 121.1862 129.5619 124.3462 114.5789 124.3462 114.5789 133.6042 131.0679 133.6042 131.0679 136.8572 110.9729 136.8572"></polygon>
                <polygon id="Fill-23" fill="#CE1E25" mask="url(#mask-8)" points="165.763 109.5502 165.763 112.8032 156.562 112.8032 156.562 136.8572 152.825 136.8572 152.825 112.8032 143.623 112.8032 143.623 109.5502"></polygon>
                <polygon id="Fill-24" fill="#CE1E25" mask="url(#mask-8)" points="179.0628 109.5502 183.4198 109.5502 197.0388 131.6132 197.0388 109.5502 200.5698 109.5502 200.5698 136.8572 196.4138 136.8572 182.5938 114.8202 182.5938 136.8572 179.0628 136.8572"></polygon>
                <path d="M230.5569,125.6664 L226.3519,113.6024 L221.9839,125.6664 L230.5569,125.6664 Z M224.4219,109.5504 L228.5979,109.5504 L238.5089,136.8564 L234.4569,136.8564 L231.6059,128.6774 L220.8929,128.6774 L217.9319,136.8564 L214.1399,136.8564 L224.4219,109.5504 Z" id="Fill-25" fill="#CE1E25" mask="url(#mask-8)"></path>
                <path d="M251.6507,109.5502 L256.9507,109.5502 L264.8017,132.6372 L272.5987,109.5502 L277.8607,109.5502 L277.8607,136.8572 L274.3297,136.8572 L274.3297,120.7402 C274.3297,120.1832 274.3407,119.2592 274.3667,117.9702 C274.3907,116.6822 274.4037,115.3002 274.4037,113.8252 L266.6067,136.8572 L262.9417,136.8572 L255.0717,113.8252 L255.0717,114.6622 C255.0717,115.3312 255.0897,116.3502 255.1277,117.7192 C255.1647,119.0892 255.1827,120.0962 255.1827,120.7402 L255.1827,136.8572 L251.6507,136.8572 L251.6507,109.5502 Z" id="Fill-26" fill="#CE1E25" mask="url(#mask-8)"></path>
            </g>
        </g>
    </g>
</svg>