<?xml version="1.0" encoding="UTF-8"?>
<svg width="113px" height="60px" viewBox="0 0 113 60" version="1.1" xmlns="http://www.w3.org/2000/svg" xmlns:xlink="http://www.w3.org/1999/xlink">
    <!-- Generator: Sketch 61.2 (89653) - https://sketch.com -->
    <title>LOGO</title>
    <desc>Created with Sketch.</desc>
    <defs>
        <polygon id="path-1" points="0 0.370828261 55.6325 0.370828261 55.6325 42.742187 0 42.742187"></polygon>
        <polygon id="path-3" points="0.43755042 0.370828261 54.5706303 0.370828261 54.5706303 42.742187 0.43755042 42.742187"></polygon>
        <polygon id="path-5" points="0.228268421 0.263681818 8.86826842 0.263681818 8.86826842 10 0.228268421 10"></polygon>
        <polygon id="path-7" points="0 60 113 60 113 1 0 1"></polygon>
    </defs>
    <g id="Page-1" stroke="none" stroke-width="1" fill="none" fill-rule="evenodd">
        <g id="Apple-TV" transform="translate(-32.000000, -20.000000)">
            <g id="Group-27">
                <g id="LOGO" transform="translate(32.000000, 20.000000)">
                    <g id="Group-3">
                        <mask id="mask-2" fill="white">
                            <use xlink:href="#path-1"></use>
                        </mask>
                        <g id="Clip-2"></g>
                        <path d="M8.5617,4.9106 L14.7702333,4.9106 C15.8963,4.9106 16.9505,5.35415435 17.7382333,6.15900217 C18.4998333,6.9367413 18.9067667,7.95612174 18.8857667,9.02878478 C18.8647667,10.0888283 18.4363667,11.0825022 17.6794333,11.8261217 C16.9225,12.5706761 15.9215,12.9805783 14.8612333,12.981513 L4.53296667,12.981513 L4.53296667,8.94652391 C4.53296667,6.72127391 6.34083333,4.9106 8.5617,4.9106 L8.5617,4.9106 Z M22.7917667,20.6836543 C24.7485,22.6822196 25.7943,25.3066217 25.7392333,28.0735783 C25.6851,30.7905239 24.5870333,33.3364043 22.6480333,35.2433609 C20.7062333,37.1512522 18.1381667,38.2024152 15.4165667,38.2024152 L4.53296667,38.2024152 L4.53296667,17.5212848 L14.8575,17.5212848 L14.8575,17.5212848 L15.2854333,17.5212848 C18.1302333,17.5212848 20.7963,18.6444261 22.7917667,20.6836543 L22.7917667,20.6836543 Z M51.0993,38.2028826 L49.2620333,38.2028826 L44.7381667,38.2028826 C42.9709,38.2028826 41.3035,37.5200239 40.0430333,36.2805022 C38.7839667,35.0423826 38.0713667,33.3892196 38.0373,31.6248174 C38.0023,29.8347087 38.6822333,28.1343391 39.9520333,26.8377957 C41.2526333,25.5090022 42.9886333,24.7775348 44.8408333,24.7775348 L45.1367,24.7775348 L47.4028333,24.7775348 L47.4028333,20.237763 L45.1367,20.237763 C43.9369,20.237763 42.9419667,19.2613826 42.9191,18.0611217 C42.9079,17.4759478 43.1319,16.91835 43.5500333,16.4916217 C43.9901,16.0424587 44.5785667,15.7952087 45.2076333,15.7952087 L47.4742333,15.7952087 L47.4742333,11.2549696 L45.2076333,11.2549696 C43.3783,11.2549696 41.5947,12.0051326 40.3141667,13.3128935 C39.0364333,14.6173826 38.3518333,16.3345783 38.3873,18.1485239 C38.4111,19.3927196 38.7690333,20.581763 39.4163,21.6109587 C38.4330333,22.1470565 37.5239667,22.8336543 36.7157,23.6590674 C34.5863,25.8338391 33.4462333,28.6942739 33.5050333,31.7136217 C33.5512333,34.083763 34.3277667,36.3342522 35.7193667,38.2028826 L26.1018333,38.2028826 L26.1018333,38.2024152 C28.7179667,35.4929478 30.1959,31.944513 30.2715,28.1642522 C30.3513,24.1675891 28.8444333,20.3831217 26.0285667,17.5053935 C24.7237667,16.1723935 23.2075667,15.1067413 21.5187,14.336013 C22.7115,12.8613935 23.3793,11.0423065 23.4175667,9.1194587 C23.4637667,6.81755652 22.5967,4.63764348 20.9755,2.9812087 C19.3277,1.29766522 17.1241,0.370828261 14.7702333,0.370828261 L8.5617,0.370828261 C3.8409,0.370828261 -0.000233333333,4.2174587 -0.000233333333,8.94652391 L-0.000233333333,42.742187 L-0.000233333333,42.742187 L44.7381667,42.742187 L49.2620333,42.742187 L55.6325,42.742187 L55.6325,7.44058913 L51.0993,7.44058913 L51.0993,38.2028826 Z" id="Fill-1" fill="#CE1E25" mask="url(#mask-2)"></path>
                    </g>
                    <g id="Group-6" transform="translate(58.000000, 0.000000)">
                        <mask id="mask-4" fill="white">
                            <use xlink:href="#path-3"></use>
                        </mask>
                        <g id="Clip-5"></g>
                        <path d="M50.0817521,38.2024152 L48.4303655,38.2024152 L43.7807857,38.2024152 C42.0309538,38.2024152 40.3795672,37.5200239 39.1316681,36.2805022 C37.8842311,35.04285 37.178937,33.3887522 37.1442731,31.62435 C37.1100714,29.8347087 37.7834748,28.1348065 39.0410798,26.8377957 C40.3291891,25.5090022 42.048979,24.7775348 43.8829286,24.7775348 L50.0817521,24.7775348 L50.0817521,38.2024152 Z M44.2462059,11.2549696 L42.0018361,11.2549696 L42.0018361,15.7947413 L44.2462059,15.7947413 C46.9670882,15.7947413 49.2581387,17.6862739 49.9010378,20.237763 L43.8829286,20.237763 C40.8329706,20.237763 37.9757437,21.4529804 35.8358277,23.6590674 C33.7273403,25.8338391 32.5982227,28.6938065 32.6569202,31.7136217 C32.7022143,34.0832957 33.4708277,36.3342522 34.849063,38.2024152 L25.6293992,38.2024152 L32.7650714,21.4992522 C33.7370462,19.2244587 33.5133487,16.6309043 32.1679286,14.5603609 C30.8220462,12.4912196 28.556416,11.2549696 26.1068361,11.2549696 L18.4248613,11.2549696 C16.6135588,11.2549696 14.8470882,12.0046652 13.5783908,13.3128935 C12.3129286,14.6173826 11.6349034,16.3350457 11.6704916,18.1485239 C11.6931387,19.3922522 12.049021,20.581763 12.6896092,21.6109587 C11.7157857,22.1475239 10.8149874,22.8336543 10.0144832,23.6590674 C7.9059958,25.8338391 6.77641597,28.6938065 6.83557563,31.7136217 C6.88086975,34.0842304 7.64855882,36.3342522 9.02679412,38.2024152 L4.9267521,38.2024152 L4.9267521,0.370828261 L0.43755042,0.370828261 L0.43755042,42.742187 L14.6534328,42.742187 L16.6486849,38.0724804 C15.3952395,37.8196217 14.2411639,37.2045348 13.3098613,36.2805022 C12.0628866,35.0419152 11.3575924,33.3887522 11.3233908,31.6252848 C11.2882647,29.8347087 11.9616681,28.1348065 13.2197353,26.8377957 C14.5078445,25.5090022 16.2276345,24.7775348 18.061584,24.7775348 L18.3546092,24.7775348 L22.3275504,24.7775348 L24.2668782,20.237763 L18.3546092,20.237763 C17.1663319,20.237763 16.1809538,19.2609152 16.1587689,18.0606543 C16.1472143,17.4759478 16.369063,16.91835 16.7831807,16.4916217 C17.2185588,16.0419913 17.8022983,15.7947413 18.4248613,15.7947413 L26.1068361,15.7947413 C27.0543151,15.7947413 27.8959538,16.254187 28.4163739,17.0543609 C28.9363319,17.8550022 29.0195252,18.818763 28.6437689,19.6983935 L18.7996933,42.742187 L43.7807857,42.742187 L48.4303655,42.742187 L54.5709538,42.742187 L54.5709538,21.6960239 C54.5709538,15.9386978 49.9393992,11.2549696 44.2462059,11.2549696 L44.2462059,11.2549696 Z" id="Fill-4" fill="#CE1E25" mask="url(#mask-4)"></path>
                    </g>
                    <g id="Group-9" transform="translate(24.000000, 50.000000)">
                        <mask id="mask-6" fill="white">
                            <use xlink:href="#path-5"></use>
                        </mask>
                        <g id="Clip-8"></g>
                        <polygon id="Fill-7" fill="#CE1E25" mask="url(#mask-6)" points="1.25142632 0.263681818 4.54826842 8.97731818 4.57668947 8.97731818 7.84511053 0.263681818 8.86826842 0.263681818 5.10247895 10.0000455 3.97984737 10.0000455 0.228268421 0.263681818"></polygon>
                    </g>
                    <mask id="mask-8" fill="white">
                        <use xlink:href="#path-7"></use>
                    </mask>
                    <g id="Clip-11"></g>
                    <polygon id="Fill-10" fill="#CE1E25" mask="url(#mask-8)" points="35 60 36 60 36 50 35 50"></polygon>
                    <polygon id="Fill-12" fill="#CE1E25" mask="url(#mask-8)" points="45.9301827 50 45.9301827 50.8123249 39.9558873 50.8123249 39.9558873 54.4257703 45.5501707 54.4257703 45.5501707 55.2380952 39.9558873 55.2380952 39.9558873 59.1876751 46 59.1876751 46 60 39 60 39 50"></polygon>
                    <polygon id="Fill-13" fill="#CE1E25" mask="url(#mask-8)" points="56 50 56 50.8123249 52.4743363 50.8123249 52.4743363 60 51.5115044 60 51.5115044 50.8123249 48 50.8123249 48 50"></polygon>
                    <polygon id="Fill-14" fill="#CE1E25" mask="url(#mask-8)" points="58.0818505 50 64.0030842 58.4593838 64.0320285 58.4593838 64.0320285 50 65 50 65 60 63.9181495 60 57.9964413 51.5406162 57.9679715 51.5406162 57.9679715 60 57 60 57 50"></polygon>
                    <path d="M73.4385692,56.0788982 L71.5069984,50.9528478 L69.5054432,56.0788982 L73.4385692,56.0788982 Z M72.0808709,50 L76,60 L74.9782271,60 L73.7600311,56.8907563 L69.211042,56.8907563 L68.007776,60 L67,60 L71.0171073,50 L72.0808709,50 Z" id="Fill-15" fill="#CE1E25" mask="url(#mask-8)"></path>
                    <polygon id="Fill-16" fill="#CE1E25" mask="url(#mask-8)" points="80.317716 50 83.4407028 58.767507 86.682284 50 88 50 88 60 87.1039531 60 87.1039531 51.3585434 87.0780381 51.3585434 83.8623719 60 83.0190337 60 79.9228404 51.3585434 79.8960469 51.3585434 79.8960469 60 79 60 79 50"></polygon>
                </g>
            </g>
        </g>
    </g>
</svg>