<?xml version="1.0" encoding="UTF-8"?>
<svg width="60px" height="60px" viewBox="0 0 60 60" version="1.1" xmlns="http://www.w3.org/2000/svg" xmlns:xlink="http://www.w3.org/1999/xlink">
    <!-- Generator: Sketch 61.2 (89653) - https://sketch.com -->
    <title>Group 9</title>
    <desc>Created with Sketch.</desc>
    <defs>
        <polygon id="path-1" points="0 5.859375e-05 59.9999531 5.859375e-05 59.9999531 60 0 60"></polygon>
        <polygon id="path-3" points="0 60 60 60 60 0 0 0"></polygon>
    </defs>
    <g id="Page-1" stroke="none" stroke-width="1" fill="none" fill-rule="evenodd">
        <g id="Group-9">
            <g id="Group-3">
                <mask id="mask-2" fill="white">
                    <use xlink:href="#path-1"></use>
                </mask>
                <g id="Clip-2"></g>
                <path d="M58.0000312,25.0000195 C58.0000312,26.1045117 57.1044844,26.9999414 55.9999922,26.9999414 L51.0000703,26.9999414 C49.8954609,26.9999414 49.0000312,26.1045117 49.0000312,25.0000195 L49.0000312,23.9999414 L53.9999531,23.9999414 C54.5522578,23.9999414 54.9999141,23.5522852 54.9999141,22.9999798 C54.9999141,22.4476758 54.5522578,22.0000195 53.9999531,22.0000195 L36.6190547,22.0000195 C39.3826875,20.1658008 41.2647188,17.270332 41.8190156,13.9999798 L49.7999531,13.9999798 C50.8266328,13.9992773 51.7827656,14.522168 52.3360078,15.3870117 L57.8410078,24.0380273 C57.9436641,24.200332 57.998625,24.3880664 58.0000312,24.5800195 L58.0000312,25.0000195 Z M53.9999531,58.0000195 L28.9999922,58.0000195 L28.9999922,37.9999805 C30.1046016,37.9999805 31.0000312,37.1045508 31.0000312,36.0000586 L31.0000312,34.0000195 C31.0000312,32.8955273 30.1046016,31.9999805 28.9999922,31.9999805 L8.99995313,31.9999805 C7.89546094,31.9999805 7.00003125,32.8955273 7.00003125,34.0000195 L7.00003125,36.0000586 C7.00003125,37.1045508 7.89546094,37.9999805 8.99995313,37.9999805 L8.99995313,58.0000195 L6.00007031,58.0000195 C5.44776562,58.0000195 4.99999219,57.5523633 4.99999219,57.0000586 L4.99999219,28.9999805 L8.99995313,28.9999805 C10.1487422,29.0005664 11.2419844,28.5060352 11.9999531,27.6429492 C12.7580391,28.5060352 13.8512813,29.0005664 14.9999531,28.9999805 L21.0000703,28.9999805 C22.1487422,29.0005664 23.2419844,28.5060352 23.9999531,27.6429492 C24.7580391,28.5060352 25.8512813,29.0005664 26.9999531,28.9999805 L32.9999531,28.9999805 C34.1487422,29.0005664 35.2419844,28.5060352 36.0000703,27.6429492 C36.7580391,28.5060352 37.8512813,29.0005664 38.9999531,28.9999805 L44.9999531,28.9999805 C46.1487422,29.0005664 47.2419844,28.5060352 47.9999531,27.6429492 C48.7580391,28.5060352 49.8512813,29.0005664 51.0000703,28.9999805 L54.9999141,28.9999805 L54.9999141,57.0000586 C54.9999141,57.5523633 54.5522578,58.0000195 53.9999531,58.0000195 L53.9999531,58.0000195 Z M28.0000313,36.0000586 L8.99995313,36.0000586 L8.99995313,34.0000195 L28.9999922,34.0000195 L28.9999922,36.0000586 L28.0000313,36.0000586 Z M10.9999922,58.0000195 L26.9999531,58.0000195 L26.9999531,37.9999805 L10.9999922,37.9999805 L10.9999922,58.0000195 Z M1.99999219,25.0000195 L1.99999219,24.5800195 C2.00092969,24.3916992 2.05389844,24.2071289 2.15292188,24.0470508 L7.66096875,15.3909961 C8.21432812,14.5241602 9.17163281,13.9996289 10.1999531,13.9999803 L18.1810078,13.9999803 C18.7351875,17.270332 20.6173359,20.1658008 23.3809688,22.0000195 L6.00007031,22.0000195 C5.44776562,22.0000195 4.99999219,22.4476758 4.99999219,22.9999803 C4.99999219,23.5522852 5.44776562,23.9999414 6.00007031,23.9999414 L10.9999922,23.9999414 L10.9999922,25.0000195 C10.9999922,26.1045117 10.1045625,26.9999414 8.99995313,26.9999414 L4.00003125,26.9999414 C2.89542188,26.9999414 1.99999219,26.1045117 1.99999219,25.0000195 L1.99999219,25.0000195 Z M37.0000312,23.9999414 L46.9999922,23.9999414 L46.9999922,25.0000195 C46.9999922,26.1045117 46.1045625,26.9999414 44.9999531,26.9999414 L38.9999531,26.9999414 C37.8953437,26.9999414 37.0000312,26.1045117 37.0000312,25.0000195 L37.0000312,23.9999414 Z M25.0000312,23.9999414 L34.9999922,23.9999414 L34.9999922,25.0000195 C34.9999922,26.1045117 34.1045625,26.9999414 32.9999531,26.9999414 L26.9999531,26.9999414 C25.8954609,26.9999414 25.0000312,26.1045117 25.0000312,25.0000195 L25.0000312,23.9999414 Z M13.0000312,23.9999414 L22.9999922,23.9999414 L22.9999922,25.0000195 C22.9999922,26.1045117 22.1045625,26.9999414 21.0000703,26.9999414 L14.9999531,26.9999414 C13.8954609,26.9999414 13.0000312,26.1045117 13.0000312,25.0000195 L13.0000312,23.9999414 Z M29.9999531,1.99998047 C35.5227656,1.99998047 39.9999141,6.47712891 39.9999141,11.9999414 C39.9999141,17.5228711 35.5227656,22.0000195 29.9999531,22.0000195 C24.4771406,22.0000195 19.9999922,17.5228711 19.9999922,11.9999414 C20.0060859,6.47958984 24.4796016,2.00607422 29.9999531,1.99998047 L29.9999531,1.99998047 Z M54.0210469,14.3090039 C53.101125,12.8685352 51.5091328,11.9975977 49.7999531,11.9999414 L42.0000703,11.9999414 C42.0000703,5.37263672 36.627375,5.859375e-05 29.9999531,5.859375e-05 C23.3725313,5.859375e-05 18.0000703,5.37263672 18.0000703,11.9999414 L10.1999531,11.9999414 C8.48936719,11.997832 6.89632031,12.8704102 5.97698438,14.3129883 L0.46003125,22.9809961 C0.160617188,23.4606445 0.0012421875,24.0144727 -4.6875e-05,24.5800195 L-4.6875e-05,25.0000195 C0.0068671875,26.818418 1.23932813,28.4033789 3.00007031,28.8579492 L3.00007031,57.0000586 C3.00007031,58.6568555 4.34315625,60.0000586 6.00007031,60.0000586 L53.9999531,60.0000586 C55.6568672,60.0000586 57.0000703,58.6568555 57.0000703,57.0000586 L57.0000703,28.8579492 C58.7606953,28.4033789 59.9931562,26.818418 59.9999531,25.0000195 L59.9999531,24.5800195 C59.9984297,24.0111914 59.8369453,23.4544336 59.5340156,22.9730273 L54.0210469,14.3090039 Z" id="Fill-1" fill="#FFFFFF" mask="url(#mask-2)"></path>
            </g>
            <path d="M26.0000039,11.9999883 L26.0000039,8.99998828 L32.0000039,8.99998828 L32.0000039,11.9999883 C32.0000039,13.6569023 30.656918,14.9999883 29.0000039,14.9999883 C27.3430898,14.9999883 26.0000039,13.6569023 26.0000039,11.9999883 L26.0000039,11.9999883 Z M35.0000039,10.0000664 C35.5523086,10.0000664 35.9999657,10.4477227 35.9999657,11.0000273 C36.0003164,11.2693242 35.8896914,11.5269023 35.6939883,11.7119414 C35.5116445,11.8986211 35.2609805,12.0025664 35.0000039,11.9999883 L34.000043,11.9999883 L34.000043,10.0000664 L35.0000039,10.0000664 Z M23.9999648,17.0000273 L34.000043,17.0000273 C34.5522305,17.0000273 35.0000039,16.5522539 35.0000039,15.9999492 C35.0000039,15.4476445 34.5522305,14.9999883 34.000043,14.9999883 L32.9739492,14.9999883 C33.212543,14.6914336 33.4139883,14.3558086 33.5739492,14.0000273 L35.0000039,14.0000273 C36.6530508,13.9906523 37.9907461,12.652957 38.0000039,11.0000273 C38.0000039,9.34311328 36.6568008,8.00002734 35.0000039,8.00002734 L34.000043,8.00002734 C34.000043,7.44772266 33.5522695,6.99994922 32.9999648,6.99994922 L25.000043,6.99994922 C24.4477383,6.99994922 23.9999648,7.44772266 23.9999648,8.00002734 L23.9999648,11.9999883 C24.0037148,13.0854961 24.3641836,14.1395977 25.0259414,14.9999883 L23.9999648,14.9999883 C23.4476602,14.9999883 23.0000039,15.4476445 23.0000039,15.9999492 C23.0000039,16.5522539 23.4476602,17.0000273 23.9999648,17.0000273 L23.9999648,17.0000273 Z" id="Fill-4" fill="#FFFFFF"></path>
            <mask id="mask-4" fill="white">
                <use xlink:href="#path-3"></use>
            </mask>
            <g id="Clip-7"></g>
            <path d="M35.0000391,51 L51,51 L51,49.0000781 L35.0000391,49.0000781 L35.0000391,51 Z M36,43.0000781 L50.0000391,43.0000781 L50.0000391,34.0000781 L36,34.0000781 L36,43.0000781 Z M36,46.9999219 L50.0000391,46.9999219 L50.0000391,45 L36,45 L36,46.9999219 Z M51.9999609,47.2778906 L51.9999609,34.0000781 C51.9999609,32.8954688 51.1046484,31.9999219 50.0000391,31.9999219 L36,31.9999219 C34.8953906,31.9999219 34.0000781,32.8954688 34.0000781,34.0000781 L34.0000781,47.2778906 C33.3832031,47.6323828 33.0021094,48.2886328 33,49.0000781 L33,51 C33,52.1046094 33.8954297,53.0000391 35.0000391,53.0000391 L51,53.0000391 C52.1046094,53.0000391 53.0000391,52.1046094 53.0000391,51 L53.0000391,49.0000781 C52.9978125,48.2886328 52.6167188,47.6323828 51.9999609,47.2778906 L51.9999609,47.2778906 Z" id="Fill-6" fill="#FFFFFF" mask="url(#mask-4)"></path>
            <path d="M23.9999766,45.9999844 C23.4477891,45.9999844 23.0000156,46.4476406 23.0000156,46.9999453 L23.0000156,49.0001016 C23.0000156,49.5521719 23.4477891,50.0000625 23.9999766,50.0000625 C24.5522813,50.0000625 25.0000547,49.5521719 25.0000547,49.0001016 L25.0000547,46.9999453 C25.0000547,46.4476406 24.5522813,45.9999844 23.9999766,45.9999844" id="Fill-8" fill="#FFFFFF" mask="url(#mask-4)"></path>
        </g>
    </g>
</svg>