<?xml version="1.0" encoding="UTF-8"?>
<svg width="75px" height="66px" viewBox="0 0 75 66" version="1.1" xmlns="http://www.w3.org/2000/svg" xmlns:xlink="http://www.w3.org/1999/xlink">
    <!-- Generator: Sketch 61.2 (89653) - https://sketch.com -->
    <title>Group 47 Copy 2</title>
    <desc>Created with Sketch.</desc>
    <defs>
        <polygon id="path-1" points="0 0.228994496 74.999879 0.228994496 74.999879 6.94079168 0 6.94079168"></polygon>
        <polygon id="path-3" points="0.00956113952 0.160742535 43.3999845 0.160742535 43.3999845 30.3704615 0.00956113952 30.3704615"></polygon>
    </defs>
    <g id="Page-1" stroke="none" stroke-width="1" fill="none" fill-rule="evenodd">
        <g id="Apple-TV" transform="translate(-855.000000, -2036.000000)">
            <g id="Group-4-Copy" transform="translate(840.000000, 2021.000000)">
                <g id="Group-47-Copy-2" transform="translate(15.000000, 15.000000)">
                    <path d="M64.5599097,60.9230769 L10.4400903,60.9230769 C7.47822155,60.9230769 5.06756757,58.5315292 5.06756757,55.5924826 L5.06756757,22.5921328 C5.06756757,19.6524845 7.47822155,17.2615385 10.4400903,17.2615385 L16.6801085,17.2615385 C17.350915,17.2615385 17.8942379,17.8000127 17.8942379,18.4648329 C17.8942379,19.1290514 17.350915,19.6681273 16.6801085,19.6681273 L10.4400903,19.6681273 C8.81679925,19.6681273 7.49582643,20.9797183 7.49582643,22.5921328 L7.49582643,55.5924826 C7.49582643,57.2042955 8.81679925,58.5164881 10.4400903,58.5164881 L64.5599097,58.5164881 C66.1832007,58.5164881 67.5041736,57.2042955 67.5041736,55.5924826 L67.5041736,22.5921328 C67.5041736,20.9797183 66.1832007,19.6681273 64.5599097,19.6681273 L58.3126067,19.6681273 C57.6424073,19.6681273 57.0984773,19.1290514 57.0984773,18.4648329 C57.0984773,17.8000127 57.6424073,17.2615385 58.3126067,17.2615385 L64.5599097,17.2615385 C67.5217784,17.2615385 69.9324324,19.6524845 69.9324324,22.5921328 L69.9324324,55.5924826 C69.9324324,58.5315292 67.5217784,60.9230769 64.5599097,60.9230769" id="Fill-1" fill="#FFFFFF"></path>
                    <path d="M63.6531606,55.8461538 L10.3333259,55.8461538 C9.66385928,55.8461538 9.12162162,55.300967 9.12162162,54.629219 L9.12162162,23.5553964 C9.12162162,22.8830399 9.66385928,22.3384615 10.3333259,22.3384615 L12.8397362,22.3384615 C13.5092028,22.3384615 14.0514404,22.8830399 14.0514404,23.5553964 C14.0514404,24.2271444 13.5092028,24.7723312 12.8397362,24.7723312 L11.5450302,24.7723312 L11.5450302,53.4122842 L62.4414563,53.4122842 L62.4414563,24.7723312 L61.1043407,24.7723312 C60.4348741,24.7723312 59.8926364,24.2271444 59.8926364,23.5553964 C59.8926364,22.8830399 60.4348741,22.3384615 61.1043407,22.3384615 L63.6531606,22.3384615 C64.3226272,22.3384615 64.8648649,22.8830399 64.8648649,23.5553964 L64.8648649,54.629219 C64.8648649,55.300967 64.3226272,55.8461538 63.6531606,55.8461538" id="Fill-3" fill="#FFFFFF"></path>
                    <g id="Group-7" transform="translate(0.000000, 58.892308)">
                        <mask id="mask-2" fill="white">
                            <use xlink:href="#path-1"></use>
                        </mask>
                        <g id="Clip-6"></g>
                        <path d="M2.56318548,2.36463913 C3.01439516,3.77149504 4.48415323,4.80514704 6.22064516,4.80514704 L68.7803226,4.80514704 C70.5168145,4.80514704 71.9847581,3.77149504 72.4371774,2.36463913 L2.56318548,2.36463913 Z M68.7803226,6.94079168 L6.22064516,6.94079168 C2.79,6.94079168 -0.000120967742,4.4778595 -0.000120967742,1.45004932 L-0.000120967742,1.29681681 C-0.000120967742,0.707378895 0.541814516,0.228994496 1.20955645,0.228994496 L73.7902016,0.228994496 C74.4585484,0.228994496 74.999879,0.707378895 74.999879,1.29681681 L74.999879,1.45004932 C74.999879,4.4778595 72.2091532,6.94079168 68.7803226,6.94079168 L68.7803226,6.94079168 Z" id="Fill-5" fill="#FFFFFF" mask="url(#mask-2)"></path>
                    </g>
                    <path d="M41.0229756,61.9384615 L36.0034546,61.9384615 C34.591304,61.9384615 33.4459459,60.5745863 33.4459459,58.8923077 L43.5810811,58.8923077 C43.5810811,60.5745863 42.4357231,61.9384615 41.0229756,61.9384615" id="Fill-8" fill="#FFFFFF"></path>
                    <path d="M58.6287575,29.4461538 L33.6009722,29.4461538 C32.9565225,29.4461538 32.4324324,28.7638154 32.4324324,27.9230769 C32.4324324,27.0823385 32.9565225,26.4 33.6009722,26.4 L58.6287575,26.4 C59.2737915,26.4 59.7972973,27.0823385 59.7972973,27.9230769 C59.7972973,28.7638154 59.2737915,29.4461538 58.6287575,29.4461538" id="Fill-10" fill="#FFFFFF"></path>
                    <path d="M16.7778342,29.4461538 L15.6545982,29.4461538 C14.844227,29.4461538 14.1891892,28.7638154 14.1891892,27.9230769 C14.1891892,27.0823385 14.844227,26.4 15.6545982,26.4 L16.7778342,26.4 C17.5874727,26.4 18.2432432,27.0823385 18.2432432,27.9230769 C18.2432432,28.7638154 17.5874727,29.4461538 16.7778342,29.4461538" id="Fill-12" fill="#FFFFFF"></path>
                    <path d="M29.2145932,35.5384615 L22.474596,35.5384615 C21.8160768,35.5384615 21.2837838,34.8561231 21.2837838,34.0153846 C21.2837838,33.1746462 21.8160768,32.4923077 22.474596,32.4923077 L29.2145932,32.4923077 C29.8725169,32.4923077 30.4054054,33.1746462 30.4054054,34.0153846 C30.4054054,34.8561231 29.8725169,35.5384615 29.2145932,35.5384615" id="Fill-14" fill="#FFFFFF"></path>
                    <path d="M58.6287575,35.5384615 L33.6009722,35.5384615 C32.9565225,35.5384615 32.4324324,34.8561231 32.4324324,34.0153846 C32.4324324,33.1746462 32.9565225,32.4923077 33.6009722,32.4923077 L58.6287575,32.4923077 C59.2737915,32.4923077 59.7972973,33.1746462 59.7972973,34.0153846 C59.7972973,34.8561231 59.2737915,35.5384615 58.6287575,35.5384615" id="Fill-16" fill="#FFFFFF"></path>
                    <path d="M16.7778342,35.5384615 L15.6545982,35.5384615 C14.844227,35.5384615 14.1891892,34.8561231 14.1891892,34.0153846 C14.1891892,33.1746462 14.844227,32.4923077 15.6545982,32.4923077 L16.7778342,32.4923077 C17.5874727,32.4923077 18.2432432,33.1746462 18.2432432,34.0153846 C18.2432432,34.8561231 17.5874727,35.5384615 16.7778342,35.5384615" id="Fill-18" fill="#FFFFFF"></path>
                    <path d="M44.4093931,40.6153846 L22.4824988,40.6153846 C21.8202087,40.6153846 21.2837838,39.9330462 21.2837838,39.0923077 C21.2837838,38.2515692 21.8202087,37.5692308 22.4824988,37.5692308 L44.4093931,37.5692308 C45.0716832,37.5692308 45.6081081,38.2515692 45.6081081,39.0923077 C45.6081081,39.9330462 45.0716832,40.6153846 44.4093931,40.6153846" id="Fill-20" fill="#FFFFFF"></path>
                    <path d="M59.5526895,40.6153846 L48.8932565,40.6153846 C48.1975154,40.6153846 47.6351351,39.9330462 47.6351351,39.0923077 C47.6351351,38.2515692 48.1975154,37.5692308 48.8932565,37.5692308 L59.5526895,37.5692308 C60.2471725,37.5692308 60.8108108,38.2515692 60.8108108,39.0923077 C60.8108108,39.9330462 60.2471725,40.6153846 59.5526895,40.6153846" id="Fill-22" fill="#FFFFFF"></path>
                    <path d="M16.7778342,40.6153846 L15.6545982,40.6153846 C14.844227,40.6153846 14.1891892,39.9330462 14.1891892,39.0923077 C14.1891892,38.2515692 14.844227,37.5692308 15.6545982,37.5692308 L16.7778342,37.5692308 C17.5874727,37.5692308 18.2432432,38.2515692 18.2432432,39.0923077 C18.2432432,39.9330462 17.5874727,40.6153846 16.7778342,40.6153846" id="Fill-24" fill="#FFFFFF"></path>
                    <path d="M44.4093931,45.6923077 L22.4824988,45.6923077 C21.8202087,45.6923077 21.2837838,45.0099692 21.2837838,44.1692308 C21.2837838,43.3284923 21.8202087,42.6461538 22.4824988,42.6461538 L44.4093931,42.6461538 C45.0716832,42.6461538 45.6081081,43.3284923 45.6081081,44.1692308 C45.6081081,45.0099692 45.0716832,45.6923077 44.4093931,45.6923077" id="Fill-26" fill="#FFFFFF"></path>
                    <path d="M51.4883323,45.6923077 L48.8495055,45.6923077 C48.1785659,45.6923077 47.6351351,45.0099692 47.6351351,44.1692308 C47.6351351,43.3284923 48.1785659,42.6461538 48.8495055,42.6461538 L51.4883323,42.6461538 C52.159272,42.6461538 52.7027027,43.3284923 52.7027027,44.1692308 C52.7027027,45.0099692 52.159272,45.6923077 51.4883323,45.6923077" id="Fill-28" fill="#FFFFFF"></path>
                    <path d="M16.7778342,45.6923077 L15.6545982,45.6923077 C14.844227,45.6923077 14.1891892,45.0099692 14.1891892,44.1692308 C14.1891892,43.3284923 14.844227,42.6461538 15.6545982,42.6461538 L16.7778342,42.6461538 C17.5874727,42.6461538 18.2432432,43.3284923 18.2432432,44.1692308 C18.2432432,45.0099692 17.5874727,45.6923077 16.7778342,45.6923077" id="Fill-30" fill="#FFFFFF"></path>
                    <path d="M51.4883323,50.7692308 L48.8495055,50.7692308 C48.1785659,50.7692308 47.6351351,50.0868923 47.6351351,49.2461538 C47.6351351,48.4054154 48.1785659,47.7230769 48.8495055,47.7230769 L51.4883323,47.7230769 C52.159272,47.7230769 52.7027027,48.4054154 52.7027027,49.2461538 C52.7027027,50.0868923 52.159272,50.7692308 51.4883323,50.7692308" id="Fill-32" fill="#FFFFFF"></path>
                    <path d="M44.4093931,50.7692308 L22.4824988,50.7692308 C21.8202087,50.7692308 21.2837838,50.0868923 21.2837838,49.2461538 C21.2837838,48.4054154 21.8202087,47.7230769 22.4824988,47.7230769 L44.4093931,47.7230769 C45.0716832,47.7230769 45.6081081,48.4054154 45.6081081,49.2461538 C45.6081081,50.0868923 45.0716832,50.7692308 44.4093931,50.7692308" id="Fill-34" fill="#FFFFFF"></path>
                    <path d="M16.7778342,50.7692308 L15.6545982,50.7692308 C14.844227,50.7692308 14.1891892,50.0868923 14.1891892,49.2461538 C14.1891892,48.4054154 14.844227,47.7230769 15.6545982,47.7230769 L16.7778342,47.7230769 C17.5874727,47.7230769 18.2432432,48.4054154 18.2432432,49.2461538 C18.2432432,50.0868923 17.5874727,50.7692308 16.7778342,50.7692308" id="Fill-36" fill="#FFFFFF"></path>
                    <g id="Group-40" transform="translate(16.216216, 0.000000)">
                        <mask id="mask-4" fill="white">
                            <use xlink:href="#path-3"></use>
                        </mask>
                        <g id="Clip-39"></g>
                        <path d="M3.25488954,2.61476569 C2.78435279,2.61476569 2.40110749,3.00803273 2.40110749,3.49148738 L2.40110749,20.3191448 C2.40110749,20.8025995 2.78435279,21.195253 3.25488954,21.195253 L5.96152212,21.195253 C6.62158891,21.195253 7.1572953,21.7449679 7.1572953,22.4222953 L7.1572953,25.5377555 L10.0558495,21.6737995 C10.2824485,21.3719471 10.63281,21.195253 11.0040976,21.195253 L40.1534603,21.195253 C40.6251928,21.195253 41.0084381,20.8025995 41.0084381,20.3191448 L41.0084381,3.49148738 C41.0084381,3.00803273 40.6251928,2.61476569 40.1534603,2.61476569 L3.25488954,2.61476569 Z M5.96152212,30.3704615 C5.83237862,30.3704615 5.70263723,30.3496017 5.57648316,30.3054282 C5.09159713,30.1354829 4.76574894,29.6692068 4.76574894,29.1434192 L4.76574894,23.6493375 L3.25488954,23.6493375 C1.46601287,23.6493375 0.00956113952,22.1560271 0.00956113952,20.3191448 L0.00956113952,3.49148738 C0.00956113952,1.65521865 1.46601287,0.160681183 3.25488954,0.160681183 L40.1534603,0.160681183 C41.9435327,0.160681183 43.3999845,1.65521865 43.3999845,3.49148738 L43.3999845,20.3191448 C43.3999845,22.1560271 41.9435327,23.6493375 40.1534603,23.6493375 L11.592418,23.6493375 L6.90857447,29.891915 C6.67898603,30.1999026 6.32503717,30.3704615 5.96152212,30.3704615 L5.96152212,30.3704615 Z" id="Fill-38" fill="#FFFFFF" mask="url(#mask-4)"></path>
                    </g>
                    <path d="M34.0888602,18.2769231 C33.734483,18.2769231 33.380798,18.1546891 33.1101701,17.9095942 L27.7702876,13.0735152 C27.229724,12.5845792 27.229724,11.7909984 27.7702876,11.3014355 L33.1087858,6.4603418 C33.6493494,5.96952523 34.5256024,5.97015207 35.066166,6.45908812 C35.6081139,6.94865101 35.6081139,7.74223182 35.0675503,8.23242155 L30.7063578,12.1865351 L35.0675503,16.1368876 C35.6081139,16.6264505 35.6081139,17.4200313 35.0675503,17.9095942 C34.7969224,18.1546891 34.4432374,18.2769231 34.0888602,18.2769231" id="Fill-41" fill="#FFFFFF"></path>
                    <path d="M40.9114902,18.2769231 C40.5570677,18.2769231 40.2033374,18.1546867 39.9326749,17.9095871 C39.392042,17.4200148 39.392042,16.6264187 39.9326749,16.1368463 L44.2944257,12.1864176 L39.9312904,8.23222773 C39.392042,7.74202855 39.392042,6.94843242 39.9326749,6.45886009 C40.4719232,5.97054146 41.3496728,5.96928776 41.8903056,6.4601138 L47.2308718,11.3013009 C47.7701201,11.7908732 47.7701201,12.5844694 47.2294873,13.0734148 L41.8903056,17.9095871 C41.6196431,18.1546867 41.2659128,18.2769231 40.9114902,18.2769231" id="Fill-43" fill="#FFFFFF"></path>
                    <path d="M35.8651626,18.2769231 C35.7690327,18.2769231 35.6736045,18.2681469 35.5774746,18.2505945 C34.818259,18.1089216 34.3312945,17.4450649 34.4891721,16.7674171 L36.7492768,7.08977847 C36.907856,6.41213063 37.6537397,5.97958945 38.4101486,6.118128 C39.1693642,6.25980091 39.655627,6.92428445 39.4970478,7.60193229 L37.236943,17.278944 C37.0987124,17.8707105 36.5149164,18.2769231 35.8651626,18.2769231" id="Fill-45" fill="#FFFFFF"></path>
                </g>
            </g>
        </g>
    </g>
</svg>