<?xml version="1.0" encoding="UTF-8"?>
<svg width="80px" height="80px" viewBox="0 0 80 80" version="1.1" xmlns="http://www.w3.org/2000/svg" xmlns:xlink="http://www.w3.org/1999/xlink">
    <!-- Generator: Sketch 61.2 (89653) - https://sketch.com -->
    <title>theme</title>
    <desc>Created with Sketch.</desc>
    <g id="Page-1" stroke="none" stroke-width="1" fill="none" fill-rule="evenodd">
        <g id="Apple-TV-Copy" transform="translate(-307.000000, -3847.000000)" fill="#000000" fill-rule="nonzero">
            <g id="theme" transform="translate(307.000000, 3847.000000)">
                <path d="M7.99573561,5.33049041 L7.99573561,18.6567164 L10.6609808,18.6567164 L10.6609808,5.33049041 C10.6609808,3.85827557 11.8540112,2.6652452 13.326226,2.6652452 L66.6311301,2.6652452 C68.1033449,2.6652452 69.2963753,3.85827557 69.2963753,5.33049041 L71.9616205,5.33049041 C71.9616205,2.38672708 69.5748934,0 66.6311301,0 L13.326226,0 C10.3824627,0 7.99573561,2.38672708 7.99573561,5.33049041 Z" id="Path"></path>
                <path d="M5.33049041,79.9573561 L66.6311301,79.9573561 C69.5748934,79.9573561 71.9616205,77.570629 71.9616205,74.6268657 L71.9616205,69.2963753 L69.2963753,69.2963753 L69.2963753,74.6268657 C69.2963753,76.0990805 68.1033449,77.2921109 66.6311301,77.2921109 C65.1589152,77.2921109 63.9658849,76.0990805 63.9658849,74.6268657 L63.9658849,70.6289979 C63.9658849,69.8927239 63.3695362,69.2963753 62.6332623,69.2963753 L10.6609808,69.2963753 L10.6609808,42.6439232 L7.99573561,42.6439232 L7.99573561,69.2963753 L1.3326226,69.2963753 C0.596348657,69.2963753 0,69.8927239 0,70.6289979 L0,74.6268657 C0,77.570629 2.38672708,79.9573561 5.33049041,79.9573561 Z M2.6652452,71.9616205 L61.3006397,71.9616205 L61.3006397,74.6268657 C61.2999734,75.5633662 61.5458422,76.4825426 62.0165911,77.2921109 L5.33049041,77.2921109 C3.85827557,77.2921109 2.6652452,76.0990805 2.6652452,74.6268657 L2.6652452,71.9616205 Z" id="Shape"></path>
                <path d="M1.3326226,39.978678 L27.9850746,39.978678 C28.7213486,39.978678 29.3176972,39.3823294 29.3176972,38.6460554 L29.3176972,22.6545842 C29.3176972,21.9183103 28.7213486,21.3219616 27.9850746,21.3219616 L1.3326226,21.3219616 C0.596348657,21.3219616 0,21.9183103 0,22.6545842 L0,38.6460554 C0,39.3823294 0.596348657,39.978678 1.3326226,39.978678 Z M2.6652452,23.9872068 L26.652452,23.9872068 L26.652452,37.3134328 L2.6652452,37.3134328 L2.6652452,23.9872068 Z" id="Shape"></path>
                <path d="M8.38619403,27.0429104 L5.72094883,29.7081557 C5.20089288,30.228878 5.20089288,31.0717617 5.72094883,31.592484 L8.38619403,34.2577292 L10.2705224,32.3734009 L8.54744136,30.6503198 L10.2705224,28.9272388 L8.38619403,27.0429104 Z" id="Path"></path>
                <path d="M20.9315032,27.0429104 L19.0471748,28.9272388 L20.7702559,30.6503198 L19.0471748,32.3734009 L20.9315032,34.2577292 L23.5967484,31.592484 C24.1168043,31.0717617 24.1168043,30.228878 23.5967484,29.7081557 L20.9315032,27.0429104 Z" id="Path"></path>
                <polygon id="Path" points="12.0609008 34.2267458 14.7274787 26.2300107 17.2567964 27.0735608 14.588886 35.0696295"></polygon>
                <path d="M78.6247335,7.99573561 L33.315565,7.99573561 C32.5792911,7.99573561 31.9829424,8.59208426 31.9829424,9.32835821 L31.9829424,35.9808102 C31.9829424,36.7170842 32.5792911,37.3134328 33.315565,37.3134328 L78.6247335,37.3134328 C79.3610074,37.3134328 79.9573561,36.7170842 79.9573561,35.9808102 L79.9573561,9.32835821 C79.9573561,8.59208426 79.3610074,7.99573561 78.6247335,7.99573561 Z M77.2921109,34.6481876 L34.6481876,34.6481876 L34.6481876,31.4045842 L46.6151386,24.2244136 L58.2819163,31.7697228 C58.6827026,32.0279185 59.1914312,32.0529051 59.6145389,31.8336887 L69.2623933,26.8363539 L77.2921109,31.4232409 L77.2921109,34.6481876 Z M77.2921109,28.3542111 L69.9626866,24.163113 C69.5702293,23.9378998 69.0901519,23.9289046 68.6883662,24.1364606 L59.0844883,29.1114739 L47.3707356,21.5351812 C46.94363,21.2593284 46.3965885,21.2503331 45.9604878,21.5125267 L34.6481876,28.2969083 L34.6481876,10.6609808 L77.2921109,10.6609808 L77.2921109,28.3542111 Z" id="Shape"></path>
                <path d="M63.2995736,22.6545842 C65.875533,22.6545842 67.9637527,20.5663646 67.9637527,17.9904051 C67.9637527,15.4144456 65.875533,13.326226 63.2995736,13.326226 C60.7236141,13.326226 58.6353945,15.4144456 58.6353945,17.9904051 C58.6353945,20.5663646 60.7236141,22.6545842 63.2995736,22.6545842 Z M63.2995736,15.9914712 C64.4036513,15.9914712 65.2985075,16.8863273 65.2985075,17.9904051 C65.2985075,19.0944829 64.4036513,19.989339 63.2995736,19.989339 C62.1954958,19.989339 61.3006397,19.0944829 61.3006397,17.9904051 C61.3006397,16.8863273 62.1954958,15.9914712 63.2995736,15.9914712 Z" id="Shape"></path>
                <path d="M13.326226,43.9765458 L13.326226,59.9680171 C13.326226,60.704291 13.9225747,61.3006397 14.6588486,61.3006397 L47.9744136,61.3006397 C48.7106876,61.3006397 49.3070362,60.704291 49.3070362,59.9680171 L49.3070362,43.9765458 C49.3070362,43.2402719 48.7106876,42.6439232 47.9744136,42.6439232 L14.6588486,42.6439232 C13.9225747,42.6439232 13.326226,43.2402719 13.326226,43.9765458 Z M15.9914712,45.3091684 L46.641791,45.3091684 L46.641791,58.6353945 L15.9914712,58.6353945 L15.9914712,45.3091684 Z" id="Shape"></path>
                <polygon id="Path" points="18.6567164 47.9744136 23.9872068 47.9744136 23.9872068 50.6396588 18.6567164 50.6396588"></polygon>
                <polygon id="Path" points="26.652452 47.9744136 38.6460554 47.9744136 38.6460554 50.6396588 26.652452 50.6396588"></polygon>
                <polygon id="Path" points="41.3113006 47.9744136 43.9765458 47.9744136 43.9765458 50.6396588 41.3113006 50.6396588"></polygon>
                <polygon id="Path" points="18.6567164 53.3049041 34.6481876 53.3049041 34.6481876 55.9701493 18.6567164 55.9701493"></polygon>
                <polygon id="Path" points="37.3134328 53.3049041 43.9765458 53.3049041 43.9765458 55.9701493 37.3134328 55.9701493"></polygon>
                <polygon id="Path" points="13.326226 5.33049041 15.9914712 5.33049041 15.9914712 7.99573561 13.326226 7.99573561"></polygon>
                <polygon id="Path" points="18.6567164 5.33049041 21.3219616 5.33049041 21.3219616 7.99573561 18.6567164 7.99573561"></polygon>
                <polygon id="Path" points="23.9872068 5.33049041 26.652452 5.33049041 26.652452 7.99573561 23.9872068 7.99573561"></polygon>
                <polygon id="Path" points="13.326226 10.6609808 29.3176972 10.6609808 29.3176972 13.326226 13.326226 13.326226"></polygon>
                <path d="M78.6247335,47.9744136 L53.3049041,47.9744136 C52.5686301,47.9744136 51.9722814,48.5707623 51.9722814,49.3070362 L51.9722814,65.2985075 C51.9722814,66.0347814 52.5686301,66.6311301 53.3049041,66.6311301 L78.6247335,66.6311301 C79.3610074,66.6311301 79.9573561,66.0347814 79.9573561,65.2985075 L79.9573561,49.3070362 C79.9573561,48.5707623 79.3610074,47.9744136 78.6247335,47.9744136 Z M77.2921109,63.9658849 L54.6375267,63.9658849 L54.6375267,50.6396588 L77.2921109,50.6396588 L77.2921109,63.9658849 Z" id="Shape"></path>
                <polygon id="Path" points="57.3027719 53.3049041 59.9680171 53.3049041 59.9680171 55.9701493 57.3027719 55.9701493"></polygon>
                <polygon id="Path" points="57.3027719 58.6353945 59.9680171 58.6353945 59.9680171 61.3006397 57.3027719 61.3006397"></polygon>
                <polygon id="Path" points="62.6332623 53.3049041 74.6268657 53.3049041 74.6268657 55.9701493 62.6332623 55.9701493"></polygon>
                <polygon id="Path" points="62.6332623 58.6353945 74.6268657 58.6353945 74.6268657 61.3006397 62.6332623 61.3006397"></polygon>
                <polygon id="Path" points="69.2963753 39.978678 71.9616205 39.978678 71.9616205 45.3091684 69.2963753 45.3091684"></polygon>
            </g>
        </g>
    </g>
</svg>