<?xml version="1.0" encoding="UTF-8"?>
<svg width="83px" height="80px" viewBox="0 0 83 80" version="1.1" xmlns="http://www.w3.org/2000/svg" xmlns:xlink="http://www.w3.org/1999/xlink">
    <!-- Generator: Sketch 61.2 (89653) - https://sketch.com -->
    <title>seo-and-web</title>
    <desc>Created with Sketch.</desc>
    <g id="Page-1" stroke="none" stroke-width="1" fill="none" fill-rule="evenodd">
        <g id="Apple-TV-Copy" transform="translate(-714.000000, -3847.000000)" fill="#000000" fill-rule="nonzero">
            <g id="seo-and-web" transform="translate(714.000000, 3847.000000)">
                <path d="M78.6206897,0 L4.13793103,0 C1.85371765,0.00266026286 0.00266026286,1.85371765 0,4.13793103 L0,75.862069 C0.00266026286,78.1462823 1.85371765,79.9973397 4.13793103,80 L78.6206897,80 C80.904903,79.9973397 82.7559604,78.1462823 82.7586207,75.862069 L82.7586207,4.13793103 C82.7559604,1.85371765 80.904903,0.00266026286 78.6206897,0 Z M4.13793103,2.75862069 L78.6206897,2.75862069 C79.3821072,2.75947584 79.9991448,3.37651346 80,4.13793103 L80,11.0344828 L2.75862069,11.0344828 L2.75862069,4.13793103 C2.75947584,3.37651346 3.37651346,2.75947584 4.13793103,2.75862069 Z M78.6206897,77.2413793 L4.13793103,77.2413793 C3.37651346,77.2405242 2.75947584,76.6234865 2.75862069,75.862069 L2.75862069,13.7931034 L80,13.7931034 L80,75.862069 C79.9991448,76.6234865 79.3821072,77.2405242 78.6206897,77.2413793 Z" id="Shape"></path>
                <circle id="Oval" cx="17.9310345" cy="6.89655172" r="1.37931034"></circle>
                <circle id="Oval" cx="12.4137931" cy="6.89655172" r="1.37931034"></circle>
                <circle id="Oval" cx="6.89655172" cy="6.89655172" r="1.37931034"></circle>
                <path d="M34.4827586,49.6551724 L45.5172414,49.6551724 C46.2790134,49.6551724 46.8965517,49.0376341 46.8965517,48.2758621 C46.8965517,47.51409 46.2790134,46.8965517 45.5172414,46.8965517 L34.4827586,46.8965517 C33.7209866,46.8965517 33.1034483,47.51409 33.1034483,48.2758621 C33.1034483,49.0376341 33.7209866,49.6551724 34.4827586,49.6551724 Z" id="Path"></path>
                <path d="M34.4827586,55.1724138 L51.0344828,55.1724138 C51.7962548,55.1724138 52.4137931,54.5548755 52.4137931,53.7931034 C52.4137931,53.0313314 51.7962548,52.4137931 51.0344828,52.4137931 L34.4827586,52.4137931 C33.7209866,52.4137931 33.1034483,53.0313314 33.1034483,53.7931034 C33.1034483,54.5548755 33.7209866,55.1724138 34.4827586,55.1724138 Z" id="Path"></path>
                <path d="M34.4827586,60.6896552 L42.7586207,60.6896552 C43.5203928,60.6896552 44.137931,60.0721169 44.137931,59.3103448 C44.137931,58.5485728 43.5203928,57.9310345 42.7586207,57.9310345 L34.4827586,57.9310345 C33.7209866,57.9310345 33.1034483,58.5485728 33.1034483,59.3103448 C33.1034483,60.0721169 33.7209866,60.6896552 34.4827586,60.6896552 Z" id="Path"></path>
                <path d="M34.4827586,66.2068966 L48.2758621,66.2068966 C49.0376341,66.2068966 49.6551724,65.5893583 49.6551724,64.8275862 C49.6551724,64.0658141 49.0376341,63.4482759 48.2758621,63.4482759 L34.4827586,63.4482759 C33.7209866,63.4482759 33.1034483,64.0658141 33.1034483,64.8275862 C33.1034483,65.5893583 33.7209866,66.2068966 34.4827586,66.2068966 Z" id="Path"></path>
                <path d="M73.1034483,68.9655172 L34.4827586,68.9655172 C33.7209866,68.9655172 33.1034483,69.5830555 33.1034483,70.3448276 C33.1034483,71.1065997 33.7209866,71.7241379 34.4827586,71.7241379 L73.1034483,71.7241379 C73.8652203,71.7241379 74.4827586,71.1065997 74.4827586,70.3448276 C74.4827586,69.5830555 73.8652203,68.9655172 73.1034483,68.9655172 Z" id="Path"></path>
                <path d="M73.1034483,52.4137931 L56.5517241,52.4137931 C55.7899521,52.4137931 55.1724138,53.0313314 55.1724138,53.7931034 C55.1724138,54.5548755 55.7899521,55.1724138 56.5517241,55.1724138 L73.1034483,55.1724138 C73.8652203,55.1724138 74.4827586,54.5548755 74.4827586,53.7931034 C74.4827586,53.0313314 73.8652203,52.4137931 73.1034483,52.4137931 Z" id="Path"></path>
                <path d="M46.8965517,59.3103448 C46.8965517,60.0721169 47.51409,60.6896552 48.2758621,60.6896552 L62.0689655,60.6896552 C62.8307376,60.6896552 63.4482759,60.0721169 63.4482759,59.3103448 C63.4482759,58.5485728 62.8307376,57.9310345 62.0689655,57.9310345 L48.2758621,57.9310345 C47.51409,57.9310345 46.8965517,58.5485728 46.8965517,59.3103448 Z" id="Path"></path>
                <path d="M73.1034483,57.9310345 L67.5862069,57.9310345 C66.8244348,57.9310345 66.2068966,58.5485728 66.2068966,59.3103448 C66.2068966,60.0721169 66.8244348,60.6896552 67.5862069,60.6896552 L73.1034483,60.6896552 C73.8652203,60.6896552 74.4827586,60.0721169 74.4827586,59.3103448 C74.4827586,58.5485728 73.8652203,57.9310345 73.1034483,57.9310345 Z" id="Path"></path>
                <path d="M73.1034483,63.4482759 L53.7931034,63.4482759 C53.0313314,63.4482759 52.4137931,64.0658141 52.4137931,64.8275862 C52.4137931,65.5893583 53.0313314,66.2068966 53.7931034,66.2068966 L73.1034483,66.2068966 C73.8652203,66.2068966 74.4827586,65.5893583 74.4827586,64.8275862 C74.4827586,64.0658141 73.8652203,63.4482759 73.1034483,63.4482759 Z" id="Path"></path>
                <path d="M73.1034483,19.3103448 L34.4827586,19.3103448 C33.7209866,19.3103448 33.1034483,19.9278831 33.1034483,20.6896552 L33.1034483,42.7586207 C33.1034483,43.5203928 33.7209866,44.137931 34.4827586,44.137931 L73.1034483,44.137931 C73.8652203,44.137931 74.4827586,43.5203928 74.4827586,42.7586207 L74.4827586,20.6896552 C74.4827586,19.9278831 73.8652203,19.3103448 73.1034483,19.3103448 Z M56.0084483,39.7353448 L59.3103448,36.4332759 L64.2562069,41.3793103 L57.2413793,41.3793103 L56.0084483,39.7353448 Z M53.7931034,41.3793103 L42.7586207,41.3793103 L48.2758621,34.022931 L53.7931034,41.3793103 Z M71.7241379,41.3793103 L68.1575862,41.3793103 L60.2856897,33.5074138 C60.0270167,33.2487276 59.676173,33.103398 59.3103448,33.103398 C58.9445167,33.103398 58.5936729,33.2487276 58.335,33.5074138 L54.3363793,37.5060345 L49.3793103,30.8965517 C49.1188215,30.5492333 48.7100101,30.3448276 48.2758621,30.3448276 C47.8417141,30.3448276 47.4329026,30.5492333 47.1724138,30.8965517 L39.3103448,41.3793103 L35.862069,41.3793103 L35.862069,22.0689655 L71.7241379,22.0689655 L71.7241379,41.3793103 Z" id="Shape"></path>
                <circle id="Oval" cx="55.1724138" cy="28.9655172" r="1.37931034"></circle>
                <path d="M9.65517241,22.0689655 L15.1724138,22.0689655 C15.9341859,22.0689655 16.5517241,21.4514272 16.5517241,20.6896552 C16.5517241,19.9278831 15.9341859,19.3103448 15.1724138,19.3103448 L9.65517241,19.3103448 C8.89340035,19.3103448 8.27586207,19.9278831 8.27586207,20.6896552 C8.27586207,21.4514272 8.89340035,22.0689655 9.65517241,22.0689655 Z" id="Path"></path>
                <path d="M26.2068966,24.8275862 L9.65517241,24.8275862 C8.89340035,24.8275862 8.27586207,25.4451245 8.27586207,26.2068966 C8.27586207,26.9686686 8.89340035,27.5862069 9.65517241,27.5862069 L26.2068966,27.5862069 C26.9686686,27.5862069 27.5862069,26.9686686 27.5862069,26.2068966 C27.5862069,25.4451245 26.9686686,24.8275862 26.2068966,24.8275862 Z" id="Path"></path>
                <path d="M15.1724138,33.1034483 C15.9341859,33.1034483 16.5517241,32.48591 16.5517241,31.7241379 C16.5517241,30.9623659 15.9341859,30.3448276 15.1724138,30.3448276 L9.65517241,30.3448276 C8.89340035,30.3448276 8.27586207,30.9623659 8.27586207,31.7241379 C8.27586207,32.48591 8.89340035,33.1034483 9.65517241,33.1034483 L15.1724138,33.1034483 Z" id="Path"></path>
                <path d="M26.2068966,35.862069 L15.1724138,35.862069 C14.4106417,35.862069 13.7931034,36.4796072 13.7931034,37.2413793 C13.7931034,38.0031514 14.4106417,38.6206897 15.1724138,38.6206897 L26.2068966,38.6206897 C26.9686686,38.6206897 27.5862069,38.0031514 27.5862069,37.2413793 C27.5862069,36.4796072 26.9686686,35.862069 26.2068966,35.862069 Z" id="Path"></path>
                <path d="M15.1724138,52.4137931 L9.65517241,52.4137931 C8.89340035,52.4137931 8.27586207,53.0313314 8.27586207,53.7931034 L8.27586207,59.3103448 C8.27586207,60.0721169 8.89340035,60.6896552 9.65517241,60.6896552 L15.1724138,60.6896552 C15.9341859,60.6896552 16.5517241,60.0721169 16.5517241,59.3103448 L16.5517241,53.7931034 C16.5517241,53.0313314 15.9341859,52.4137931 15.1724138,52.4137931 Z M13.7931034,57.9310345 L11.0344828,57.9310345 L11.0344828,55.1724138 L13.7931034,55.1724138 L13.7931034,57.9310345 Z" id="Shape"></path>
                <path d="M26.2068966,52.4137931 L20.6896552,52.4137931 C19.9278831,52.4137931 19.3103448,53.0313314 19.3103448,53.7931034 C19.3103448,54.5548755 19.9278831,55.1724138 20.6896552,55.1724138 L26.2068966,55.1724138 C26.9686686,55.1724138 27.5862069,54.5548755 27.5862069,53.7931034 C27.5862069,53.0313314 26.9686686,52.4137931 26.2068966,52.4137931 Z" id="Path"></path>
                <path d="M15.1724138,63.4482759 L9.65517241,63.4482759 C8.89340035,63.4482759 8.27586207,64.0658141 8.27586207,64.8275862 L8.27586207,70.3448276 C8.27586207,71.1065997 8.89340035,71.7241379 9.65517241,71.7241379 L15.1724138,71.7241379 C15.9341859,71.7241379 16.5517241,71.1065997 16.5517241,70.3448276 L16.5517241,64.8275862 C16.5517241,64.0658141 15.9341859,63.4482759 15.1724138,63.4482759 Z M13.7931034,68.9655172 L11.0344828,68.9655172 L11.0344828,66.2068966 L13.7931034,66.2068966 L13.7931034,68.9655172 Z" id="Shape"></path>
                <path d="M26.2068966,63.4482759 L20.6896552,63.4482759 C19.9278831,63.4482759 19.3103448,64.0658141 19.3103448,64.8275862 C19.3103448,65.5893583 19.9278831,66.2068966 20.6896552,66.2068966 L26.2068966,66.2068966 C26.9686686,66.2068966 27.5862069,65.5893583 27.5862069,64.8275862 C27.5862069,64.0658141 26.9686686,63.4482759 26.2068966,63.4482759 Z" id="Path"></path>
                <path d="M26.2068966,68.9655172 L20.6896552,68.9655172 C19.9278831,68.9655172 19.3103448,69.5830555 19.3103448,70.3448276 C19.3103448,71.1065997 19.9278831,71.7241379 20.6896552,71.7241379 L26.2068966,71.7241379 C26.9686686,71.7241379 27.5862069,71.1065997 27.5862069,70.3448276 C27.5862069,69.5830555 26.9686686,68.9655172 26.2068966,68.9655172 Z" id="Path"></path>
                <path d="M15.1724138,46.8965517 L9.65517241,46.8965517 C8.89340035,46.8965517 8.27586207,47.51409 8.27586207,48.2758621 C8.27586207,49.0376341 8.89340035,49.6551724 9.65517241,49.6551724 L15.1724138,49.6551724 C15.9341859,49.6551724 16.5517241,49.0376341 16.5517241,48.2758621 C16.5517241,47.51409 15.9341859,46.8965517 15.1724138,46.8965517 Z" id="Path"></path>
                <path d="M26.2068966,57.9310345 L20.6896552,57.9310345 C19.9278831,57.9310345 19.3103448,58.5485728 19.3103448,59.3103448 C19.3103448,60.0721169 19.9278831,60.6896552 20.6896552,60.6896552 L26.2068966,60.6896552 C26.9686686,60.6896552 27.5862069,60.0721169 27.5862069,59.3103448 C27.5862069,58.5485728 26.9686686,57.9310345 26.2068966,57.9310345 Z" id="Path"></path>
                <circle id="Oval" cx="9.65517241" cy="37.2413793" r="1.37931034"></circle>
                <path d="M9.65517241,44.137931 L20.6896552,44.137931 C21.4514272,44.137931 22.0689655,43.5203928 22.0689655,42.7586207 C22.0689655,41.9968486 21.4514272,41.3793103 20.6896552,41.3793103 L9.65517241,41.3793103 C8.89340035,41.3793103 8.27586207,41.9968486 8.27586207,42.7586207 C8.27586207,43.5203928 8.89340035,44.137931 9.65517241,44.137931 Z" id="Path"></path>
            </g>
        </g>
    </g>
</svg>