<?xml version="1.0" encoding="UTF-8"?>
<svg width="49px" height="60px" viewBox="0 0 49 60" version="1.1" xmlns="http://www.w3.org/2000/svg" xmlns:xlink="http://www.w3.org/1999/xlink">
    <!-- Generator: Sketch 61.2 (89653) - https://sketch.com -->
    <title>Group 38</title>
    <desc>Created with Sketch.</desc>
    <defs>
        <polygon id="path-1" points="0 2.75229358e-05 48.0540273 2.75229358e-05 48.0540273 60 0 60"></polygon>
    </defs>
    <g id="Page-1" stroke="none" stroke-width="1" fill="none" fill-rule="evenodd">
        <g id="Group-38">
            <path d="M3.95604396,2.63736264 C3.22888009,2.63736264 2.63736264,3.2285704 2.63736264,3.95604396 C2.63736264,4.68320782 3.22888009,5.27472527 3.95604396,5.27472527 C4.68351752,5.27472527 5.27472527,4.68320782 5.27472527,3.95604396 C5.27472527,3.2285704 4.68351752,2.63736264 3.95604396,2.63736264" id="Fill-1" fill="#FFFFFF"></path>
            <path d="M7.91208791,2.63736264 C7.18492405,2.63736264 6.59340659,3.2285704 6.59340659,3.95604396 C6.59340659,4.68320782 7.18492405,5.27472527 7.91208791,5.27472527 C8.63956147,5.27472527 9.23076923,4.68320782 9.23076923,3.95604396 C9.23076923,3.2285704 8.63956147,2.63736264 7.91208791,2.63736264" id="Fill-3" fill="#FFFFFF"></path>
            <path d="M12.5274725,2.63736264 C11.8003087,2.63736264 11.2087912,3.2285704 11.2087912,3.95604396 C11.2087912,4.68320782 11.8003087,5.27472527 12.5274725,5.27472527 C13.2549461,5.27472527 13.8461538,4.68320782 13.8461538,3.95604396 C13.8461538,3.2285704 13.2549461,2.63736264 12.5274725,2.63736264" id="Fill-5" fill="#FFFFFF"></path>
            <g id="Group-9">
                <mask id="mask-2" fill="white">
                    <use xlink:href="#path-1"></use>
                </mask>
                <g id="Clip-8"></g>
                <path d="M46.2872558,26.2500275 L31.4131254,26.2500275 C31.0482637,25.227 30.066263,24.4921376 28.9146942,24.4921376 L19.1389458,24.4921376 C17.987377,24.4921376 17.0059295,25.227 16.6407912,26.2500275 L1.76666086,26.2500275 L1.76666086,8.20323853 L43.048313,8.20323853 C43.5362706,8.20323853 43.9315604,7.80993578 43.9315604,7.32415596 C43.9315604,6.83865138 43.5362706,6.44534862 43.048313,6.44534862 L1.76666086,6.44534862 L1.76666086,3.22268807 C1.76666086,2.41461468 2.42667601,1.75791743 3.23883213,1.75791743 L44.8150845,1.75791743 C45.626964,1.75791743 46.2872558,2.41461468 46.2872558,3.22268807 L46.2872558,26.2500275 Z M28.9146942,28.0079174 L19.1389458,28.0079174 C18.6520947,28.0079174 18.2556984,27.613789 18.2556984,27.1288349 C18.2556984,26.644156 18.6520947,26.2500275 19.1389458,26.2500275 L28.9146942,26.2500275 C29.4020985,26.2500275 29.7982183,26.644156 29.7982183,27.1288349 C29.7982183,27.613789 29.4020985,28.0079174 28.9146942,28.0079174 L28.9146942,28.0079174 Z M44.8150845,2.75229358e-05 L3.23883213,2.75229358e-05 C1.45297385,2.75229358e-05 -0.000110647973,1.44553211 -0.000110647973,3.22268807 L-0.000110647973,51.5047982 C-0.000110647973,51.990578 0.395732474,52.3838807 0.883136794,52.3838807 C1.37109435,52.3838807 1.76666086,51.990578 1.76666086,51.5047982 L1.76666086,28.0079174 L16.6407912,28.0079174 C17.0059295,29.030945 17.987377,29.7655321 19.1389458,29.7655321 L28.9146942,29.7655321 C30.066263,29.7655321 31.0482637,29.030945 31.4131254,28.0079174 L46.2872558,28.0079174 L46.2872558,56.777367 C46.2872558,57.5854404 45.626964,58.2421376 44.8150845,58.2421376 L3.23883213,58.2421376 C2.42667601,58.2421376 1.76666086,57.5854404 1.76666086,56.777367 L1.76666086,55.6065413 C1.76666086,55.1210367 1.37109435,54.7274587 0.883136794,54.7274587 C0.395732474,54.7274587 -0.000110647973,55.1210367 -0.000110647973,55.6065413 L-0.000110647973,56.777367 C-0.000110647973,58.5545229 1.45297385,60.0000275 3.23883213,60.0000275 L44.8150845,60.0000275 C46.6012194,60.0000275 48.0540273,58.5545229 48.0540273,56.777367 L48.0540273,3.22268807 C48.0540273,1.44553211 46.6012194,2.75229358e-05 44.8150845,2.75229358e-05 L44.8150845,2.75229358e-05 Z" id="Fill-7" fill="#FFFFFF" mask="url(#mask-2)"></path>
            </g>
            <path d="M17.1428571,13.5164835 C17.1428571,12.9697862 16.7373943,12.5274725 16.2375124,12.5274725 L9.47677331,12.5274725 C8.97689145,12.5274725 8.57142857,12.9697862 8.57142857,13.5164835 C8.57142857,14.0631808 8.97689145,14.5054945 9.47677331,14.5054945 L16.2375124,14.5054945 C16.7373943,14.5054945 17.1428571,14.0631808 17.1428571,13.5164835" id="Fill-10" fill="#FFFFFF"></path>
            <path d="M19.3309029,14.5054945 L28.1413523,14.5054945 C28.6216401,14.5054945 29.010989,14.0629403 29.010989,13.5166384 C29.010989,12.9700267 28.6216401,12.5274725 28.1413523,12.5274725 L19.3309029,12.5274725 C18.8508874,12.5274725 18.4615385,12.9700267 18.4615385,13.5166384 C18.4615385,14.0629403 18.8508874,14.5054945 19.3309029,14.5054945" id="Fill-12" fill="#FFFFFF"></path>
            <path d="M38.6550948,12.5274725 L31.8943557,12.5274725 C31.3947574,12.5274725 30.989011,12.9700267 30.989011,13.5163287 C30.989011,14.0629403 31.3947574,14.5054945 31.8943557,14.5054945 L38.6550948,14.5054945 C39.1552602,14.5054945 39.5604396,14.0629403 39.5604396,13.5163287 C39.5604396,12.9700267 39.1552602,12.5274725 38.6550948,12.5274725" id="Fill-14" fill="#FFFFFF"></path>
            <path d="M23.0769231,17.4725275 C23.0769231,16.9258302 22.6906856,16.4835165 22.2145061,16.4835165 L14.0492301,16.4835165 C13.5730506,16.4835165 13.1868132,16.9258302 13.1868132,17.4725275 C13.1868132,18.0192247 13.5730506,18.4615385 14.0492301,18.4615385 L22.2145061,18.4615385 C22.6906856,18.4615385 23.0769231,18.0192247 23.0769231,17.4725275" id="Fill-16" fill="#FFFFFF"></path>
            <path d="M34.082638,16.4835165 L25.9176321,16.4835165 C25.4414526,16.4835165 25.0549451,16.9260706 25.0549451,17.4723726 C25.0549451,18.0189843 25.4414526,18.4615385 25.9176321,18.4615385 L34.082638,18.4615385 C34.5590876,18.4615385 34.9450549,18.0189843 34.9450549,17.4723726 C34.9450549,16.9260706 34.5590876,16.4835165 34.082638,16.4835165" id="Fill-18" fill="#FFFFFF"></path>
            <path d="M30.0938749,19.7802198 L18.0379932,19.7802198 C17.543748,19.7802198 17.1428571,20.2227739 17.1428571,20.7690759 C17.1428571,21.3156876 17.543748,21.7582418 18.0379932,21.7582418 L30.0938749,21.7582418 C30.5884005,21.7582418 30.989011,21.3156876 30.989011,20.7690759 C30.989011,20.2227739 30.5884005,19.7802198 30.0938749,19.7802198" id="Fill-20" fill="#FFFFFF"></path>
            <path d="M10.8791209,39.7292122 C9.15003711,39.7292122 7.74331529,38.3224904 7.74331529,36.5934066 C7.74331529,34.8643228 9.15003711,33.4573177 10.8791209,33.4573177 C12.6082046,33.4573177 14.0149265,34.8643228 14.0149265,36.5934066 C14.0149265,38.3224904 12.6082046,39.7292122 10.8791209,39.7292122 M10.8791209,31.6483516 C8.15264131,31.6483516 5.93406593,33.866927 5.93406593,36.5934066 C5.93406593,39.3198862 8.15264131,41.5384615 10.8791209,41.5384615 C13.6056004,41.5384615 15.8241758,39.3198862 15.8241758,36.5934066 C15.8241758,33.866927 13.6056004,31.6483516 10.8791209,31.6483516" id="Fill-22" fill="#FFFFFF"></path>
            <path d="M7.47899907,42.8571429 C6.99002333,42.8571429 6.59340659,43.299697 6.59340659,43.845999 C6.59340659,44.3926107 6.99002333,44.8351648 7.47899907,44.8351648 L13.619902,44.8351648 C14.1088778,44.8351648 14.5054945,44.3926107 14.5054945,43.845999 C14.5054945,43.299697 14.1088778,42.8571429 13.619902,42.8571429 L7.47899907,42.8571429 Z" id="Fill-24" fill="#FFFFFF"></path>
            <path d="M24.0659341,39.7292122 C22.3368503,39.7292122 20.9301285,38.3224904 20.9301285,36.5934066 C20.9301285,34.8643228 22.3368503,33.4573177 24.0659341,33.4573177 C25.7950178,33.4573177 27.2017397,34.8643228 27.2017397,36.5934066 C27.2017397,38.3224904 25.7950178,39.7292122 24.0659341,39.7292122 M24.0659341,31.6483516 C21.3394545,31.6483516 19.1208791,33.866927 19.1208791,36.5934066 C19.1208791,39.3198862 21.3394545,41.5384615 24.0659341,41.5384615 C26.7924136,41.5384615 29.010989,39.3198862 29.010989,36.5934066 C29.010989,33.866927 26.7924136,31.6483516 24.0659341,31.6483516" id="Fill-26" fill="#FFFFFF"></path>
            <path d="M27.6923077,43.8461538 C27.6923077,43.2994566 27.295691,42.8571429 26.8067152,42.8571429 L20.6658123,42.8571429 C20.1768365,42.8571429 19.7802198,43.2994566 19.7802198,43.8461538 C19.7802198,44.3928511 20.1768365,44.8351648 20.6658123,44.8351648 L26.8067152,44.8351648 C27.295691,44.8351648 27.6923077,44.3928511 27.6923077,43.8461538" id="Fill-28" fill="#FFFFFF"></path>
            <path d="M37.2527473,39.7292122 C35.5236635,39.7292122 34.1169417,38.3224904 34.1169417,36.5934066 C34.1169417,34.8643228 35.5236635,33.4573177 37.2527473,33.4573177 C38.981831,33.4573177 40.3885528,34.8643228 40.3885528,36.5934066 C40.3885528,38.3224904 38.981831,39.7292122 37.2527473,39.7292122 M37.2527473,31.6483516 C34.5262677,31.6483516 32.3076923,33.866927 32.3076923,36.5934066 C32.3076923,39.3198862 34.5262677,41.5384615 37.2527473,41.5384615 C39.9792268,41.5384615 42.1978022,39.3198862 42.1978022,36.5934066 C42.1978022,33.866927 39.9792268,31.6483516 37.2527473,31.6483516" id="Fill-30" fill="#FFFFFF"></path>
            <path d="M34.5119661,42.8571429 C34.0229904,42.8571429 33.6263736,43.299697 33.6263736,43.845999 C33.6263736,44.3926107 34.0229904,44.8351648 34.5119661,44.8351648 L40.6528691,44.8351648 C41.1418448,44.8351648 41.5384615,44.3926107 41.5384615,43.845999 C41.5384615,43.299697 41.1418448,42.8571429 40.6528691,42.8571429 L34.5119661,42.8571429 Z" id="Fill-32" fill="#FFFFFF"></path>
            <path d="M7.67535734,48.6224362 L20.6765636,48.6224362 L20.6765636,54.8943306 L18.6280176,54.8943306 L16.0224873,52.1871135 C15.0039395,51.1288145 13.3471636,51.1288145 12.3286158,52.1871135 L9.72281287,54.8943306 L7.67535734,54.8943306 L7.67535734,48.6224362 Z M12.1854847,54.8943306 L13.5598154,53.4660802 C13.8992405,53.1134083 14.45159,53.1136916 14.7915603,53.4660802 L16.165891,54.8943306 L12.1854847,54.8943306 Z M5.93406593,55.1957305 C5.93406593,56.027413 6.58483509,56.7032967 7.38527842,56.7032967 L20.9666426,56.7032967 C21.7670859,56.7032967 22.4175824,56.027413 22.4175824,55.1957305 L22.4175824,48.3210362 C22.4175824,47.4893537 21.7670859,46.8131868 20.9666426,46.8131868 L7.38527842,46.8131868 C6.58483509,46.8131868 5.93406593,47.4893537 5.93406593,48.3210362 L5.93406593,55.1957305 Z" id="Fill-34" fill="#FFFFFF"></path>
            <path d="M27.4555771,48.6224362 L40.4567834,48.6224362 L40.4567834,54.8943306 L38.4082374,54.8943306 L35.8027071,52.1871135 C34.7841593,51.1288145 33.1273834,51.1288145 32.1088356,52.1871135 L29.5030327,54.8943306 L27.4555771,54.8943306 L27.4555771,48.6224362 Z M31.9657045,54.8943306 L33.3400352,53.4660802 C33.6794602,53.1134083 34.2318098,53.1136916 34.5717801,53.4660802 L35.9461108,54.8943306 L31.9657045,54.8943306 Z M25.7142857,48.3210362 L25.7142857,55.1957305 C25.7142857,56.027413 26.3650549,56.7032967 27.1654982,56.7032967 L40.7468623,56.7032967 C41.5473057,56.7032967 42.1978022,56.027413 42.1978022,55.1957305 L42.1978022,48.3210362 C42.1978022,47.4893537 41.5473057,46.8131868 40.7468623,46.8131868 L27.1654982,46.8131868 C26.3650549,46.8131868 25.7142857,47.4893537 25.7142857,48.3210362 L25.7142857,48.3210362 Z" id="Fill-36" fill="#FFFFFF"></path>
        </g>
    </g>
</svg>