<svg xmlns="http://www.w3.org/2000/svg" viewBox="0 0 289.13 178.92"><defs><style>.cls-1{fill:#231815;}</style></defs><title>logo_vn</title><g id="レイヤー_2" data-name="レイヤー 2"><g id="layout"><path class="cls-1" d="M87.65,0c9.52,1.61,14.88,9,18,18.24,5.23-3.89,11-6.44,17.3-6.44,14,0,19.44,11.8,20.65,16.36,6-7.37,14.08-13.95,22.93-13.95A16.71,16.71,0,0,1,179,19.31c6.7,7,8.31,18,8.31,27.76,0,17.84-5.23,37.82-12.33,48.15a3.15,3.15,0,0,1-2.56,1.2,2.78,2.78,0,0,1-2.81-2.94,3.7,3.7,0,0,1,.4-1.75c6.44-9.11,11.26-28,11.26-44.66,0-12.06-3.08-27.36-15-27.36-9.51,0-18.5,12.47-20.51,15.3a62.27,62.27,0,0,1,2.14,17.43c0,21.32-6.3,44.66-18.37,44.66a8.69,8.69,0,0,1-5.5-2c-2.14-2.29-3.22-6-3.22-11.81,0-13.67,7.64-35,18.51-49.48a25.1,25.1,0,0,0-5.9-11.8,15,15,0,0,0-10.87-4.57c-5.36,0-10.59,2.69-15.28,7.11,1.61,6.84,2.14,16,2.14,23.74,0,25.35-8.58,49.35-22.39,49.35-6.84,0-12.21-5.76-12.21-17.43,0-16.36,10.6-43.86,25.88-57.53C98,12.61,93.28,7.11,86.44,5.77A3,3,0,0,1,83.89,3,3,3,0,0,1,87,0Zm14.48,28.7C89.92,42.92,80.67,65.31,80.67,80.2c0,1.74.13,11.93,6.44,11.93,8.72,0,16.23-20.78,16.23-43.85A164.75,164.75,0,0,0,102.13,28.7ZM141,40.91c-8.58,14.48-14.35,31.37-14.35,42.37,0,1.88.27,8.45,3,8.45,5.63,0,11.94-16.63,12.21-37.95A82.94,82.94,0,0,0,141,40.91Z"/><path class="cls-1" d="M214.36,56.73a2.78,2.78,0,0,1-2.82,3A3.24,3.24,0,0,1,209,58.2a5.38,5.38,0,0,0-4.69-2.54c-10.46,0-16.1,14.08-16.1,24,0,10.73,6,12.07,9,12.07a12.74,12.74,0,0,0,11-6.71,3,3,0,0,1,2.55-1.74c1.6,0,2.55,1.35,2.55,3.09,0,2.54-6.31,10.73-16.5,10.73-8.32,0-14.62-5.37-14.62-17.44,0-14.62,9.26-29.77,22.53-29.77,5.5,0,8.18,2.28,9.25,5A4.73,4.73,0,0,1,214.36,56.73Z"/><path class="cls-1" d="M7.36,127.59l3.5,13.06c.2.71.32.95.59.95s.4-.24.59-.95l3.54-13.06c.56-2,1.58-3,3.86-3,2.44,0,3.58,1.1,3.58,3v22.59c0,1.26-1,1.49-2,1.49s-1.88-.23-1.88-1.49l.19-20.9c0-.71-.08-1-.27-1s-.36.24-.51.71l-4.33,14.37c-.32,1.1-.95,1.81-2.88,1.81-1.77,0-2.55-.67-2.91-1.89L4.41,129.2c-.16-.55-.32-.87-.55-.87s-.32.28-.32.95l.2,20.9c0,1.26-.87,1.49-1.81,1.49S0,151.44,0,150.18V127.59c0-1.89,1.14-3,3.58-3S6.77,125.38,7.36,127.59Z"/><path class="cls-1" d="M47.37,150l-.94-4c-.28-1.26-.75-1.66-1.89-1.66H38c-.86,0-1.33.32-1.65,1.66l-1.06,4.29c-.27,1.18-.79,1.45-1.53,1.45-1.18,0-2.17-.43-2.17-1.57a10.89,10.89,0,0,1,.43-2.17c1.26-4.72,4.29-16.05,5.91-21.29.47-1.53,1.73-2.28,3.74-2.28,2.2,0,3.34.59,3.89,2.56,1.65,5.86,4.33,16.21,5.55,21a9,9,0,0,1,.39,2.17c0,.9-.43,1.57-2.24,1.57C48.24,151.67,47.69,151.28,47.37,150Zm-6.73-21c-.78,2.64-2.79,10.59-2.79,11.38s.43.9,1.41.9h4.41c1.06,0,1.46-.16,1.46-.9s-1.81-8.7-2.64-11.38c-.23-.78-.47-1-.9-1S40.88,128.18,40.64,129Z"/><path class="cls-1" d="M71,124.75c.9,0,1.14.79,1.14,1.58S71.92,128,71,128H66.89c-1,0-1.11.35-1.11,1.69v20.51c0,1.26-1.06,1.49-1.93,1.49-1,0-1.92-.23-1.92-1.49V129.67c0-1.34-.16-1.69-1.11-1.69H56.69c-.9,0-1.14-.75-1.14-1.65s.24-1.58,1.14-1.58Z"/><path class="cls-1" d="M85.32,128c-.95,0-1.1.35-1.1,1.69v5.51c0,.83.15,1,1.1,1h7c.91,0,1.14.66,1.14,1.45s-.23,1.54-1.14,1.54h-7c-.95,0-1.1.19-1.1,1.06v7c0,.83.15,1,1.1,1h8.22c.91,0,1.15.78,1.15,1.57s-.24,1.65-1.15,1.65h-9.6c-2.44,0-3.58-1-3.58-3V127.74c0-1.89,1.14-3,3.58-3h9c.91,0,1.15.79,1.15,1.58S93.82,128,92.91,128Z"/><path class="cls-1" d="M107.36,150.18c0,1.26-.94,1.49-1.88,1.49s-2-.23-2-1.49V127.74c0-1.89,1.14-3,3.58-3h3.81c5.51,0,8.94,2.25,8.94,7.17a7,7,0,0,1-3.86,6.65c-.74.43-.94.67-.94,1.22a2.22,2.22,0,0,0,.55,1.26l5.59,8.18a1.64,1.64,0,0,1,.23.79c0,.75-.51,1.65-2,1.65a2.08,2.08,0,0,1-2.05-1.18l-5-8a3.13,3.13,0,0,0-3.11-1.89c-1.42,0-1.89.43-1.89,1.26Zm0-13.82c0,1.66.28,1.81,2.21,1.81,3.85,0,6.29-1.18,6.29-5.66,0-3.7-1.89-4.88-5.11-4.88-3,0-3.39.07-3.39,1.81Z"/><path class="cls-1" d="M134,150.18c0,1.26-1.07,1.49-1.93,1.49-1,0-1.93-.23-1.93-1.49V126.09c0-1.26,1.06-1.49,1.93-1.49,1,0,1.93.23,1.93,1.49Z"/><path class="cls-1" d="M158.25,150l-.94-4c-.28-1.26-.75-1.66-1.89-1.66h-6.58c-.86,0-1.33.32-1.65,1.66l-1.06,4.29c-.28,1.18-.79,1.45-1.54,1.45-1.18,0-2.16-.43-2.16-1.57a10.89,10.89,0,0,1,.43-2.17c1.26-4.72,4.29-16.05,5.91-21.29.47-1.53,1.73-2.28,3.73-2.28,2.21,0,3.35.59,3.9,2.56,1.65,5.86,4.33,16.21,5.55,21a9.63,9.63,0,0,1,.39,2.17c0,.9-.43,1.57-2.24,1.57C159.12,151.67,158.57,151.28,158.25,150Zm-6.73-21c-.79,2.64-2.79,10.59-2.79,11.38s.43.9,1.41.9h4.41c1.06,0,1.46-.16,1.46-.9s-1.81-8.7-2.64-11.38c-.24-.78-.47-1-.91-1S151.76,128.18,151.52,129Z"/><path class="cls-1" d="M174.69,147.26c0,.83.16,1,1.1,1h5.87c.9,0,1.14.78,1.14,1.57s-.24,1.65-1.14,1.65h-7.24c-2.44,0-3.59-1-3.59-3V126.09c0-1.26,1.07-1.49,1.93-1.49,1,0,1.93.23,1.93,1.49Z"/><path class="cls-1" d="M211.4,148.76a16,16,0,0,0,3.58-.43c.79-.2,1.62.15,1.62,1.45a1.26,1.26,0,0,1-.67,1.3,11.22,11.22,0,0,1-5,.83c-7.32,0-9.72-4.84-9.72-13.58,0-8.58,2.4-14,9.72-14a12.25,12.25,0,0,1,5,.83,1.23,1.23,0,0,1,.67,1.26c0,1-.63,1.69-1.42,1.49a16.2,16.2,0,0,0-3.82-.43c-5.23,0-6.22,3.11-6.22,10.86C205.1,145.65,206.05,148.76,211.4,148.76Z"/><path class="cls-1" d="M239.86,150l-.94-4c-.28-1.26-.75-1.66-1.89-1.66h-6.57c-.87,0-1.34.32-1.66,1.66l-1.06,4.29c-.27,1.18-.79,1.45-1.53,1.45-1.19,0-2.17-.43-2.17-1.57a10.89,10.89,0,0,1,.43-2.17c1.26-4.72,4.29-16.05,5.91-21.29.47-1.53,1.73-2.28,3.73-2.28,2.21,0,3.35.59,3.9,2.56,1.66,5.86,4.33,16.21,5.55,21a9.9,9.9,0,0,1,.4,2.17c0,.9-.44,1.57-2.25,1.57C240.73,151.67,240.18,151.28,239.86,150Zm-6.73-21c-.78,2.64-2.79,10.59-2.79,11.38s.43.9,1.42.9h4.4c1.07,0,1.46-.16,1.46-.9s-1.81-8.7-2.64-11.38c-.24-.78-.47-1-.9-1S233.37,128.18,233.13,129Z"/><path class="cls-1" d="M256.32,150.18c0,1.26-1.06,1.49-1.93,1.49s-1.92-.23-1.92-1.49V127.74c0-1.89,1.14-3,3.58-3h9c.91,0,1.14.79,1.14,1.58S265.93,128,265,128h-7.6c-.94,0-1.1.35-1.1,1.69v5.51c0,.83.16,1,1.1,1h7.05c.9,0,1.14.66,1.14,1.45s-.24,1.54-1.14,1.54h-7.05c-.94,0-1.1.19-1.1,1.06Z"/><path class="cls-1" d="M279.77,128c-.95,0-1.1.35-1.1,1.69v5.51c0,.83.15,1,1.1,1h7c.91,0,1.14.66,1.14,1.45s-.23,1.54-1.14,1.54h-7c-.95,0-1.1.19-1.1,1.06v7c0,.83.15,1,1.1,1H288c.91,0,1.14.78,1.14,1.57s-.23,1.65-1.14,1.65h-9.6c-2.44,0-3.58-1-3.58-3V127.74c0-1.89,1.14-3,3.58-3h9c.91,0,1.14.79,1.14,1.58s-.23,1.65-1.14,1.65Z"/><path class="cls-1" d="M55,178.09c0,.43-.17.83-.73.83s-.75-.3-.75-.83v-7.45c0-1.24.43-1.66,1.41-1.66h1.9a2.64,2.64,0,0,1,1.68.4A3,3,0,0,1,59.68,172a3.19,3.19,0,0,1-1.17,2.66,3.3,3.3,0,0,1-1.73.43H55Zm0-4.51h1.73a1.55,1.55,0,0,0,0-3.09H55.36c-.28,0-.41.19-.41.49Z"/><path class="cls-1" d="M62.8,178.36c-.08.26-.25.56-.57.56s-.89-.3-.89-.76a1.53,1.53,0,0,1,.07-.39l2.44-7.88c.29-.95.83-1.16,1.37-1.16s1.07.06,1.4,1.16l2.43,7.88a.92.92,0,0,1,.07.36c0,.56-.59.79-.9.79s-.51-.44-.55-.56l-.61-2H63.4Zm1.06-3.44H66.6l-1.13-3.64c-.09-.29-.17-.31-.24-.31s-.15,0-.25.31Z"/><path class="cls-1" d="M76.78,176.33s0,.08.07.08,0,0,0-.09v-6.77c0-.43.16-.82.73-.82s.74.3.74.82v8.34a1,1,0,0,1-1.1,1,1.12,1.12,0,0,1-1.16-.77l-2.79-6.84s0-.06-.06-.06,0,0,0,.07v6.77c0,.43-.16.83-.73.83s-.74-.3-.74-.83v-8.34c0-.86.62-1,1.11-1a1.11,1.11,0,0,1,1.15.76Z"/><path class="cls-1" d="M88.78,171.65a.7.7,0,0,1-.74.76c-.52,0-.59-.28-.71-.72a1.79,1.79,0,0,0-.47-.9,2.14,2.14,0,0,0-1.46-.54c-2.11,0-2.37,2.58-2.37,3.63,0,1.34.39,3.51,2.32,3.51a1.89,1.89,0,0,0,2-1.73c.08-.38.16-.7.73-.7a.68.68,0,0,1,.72.74,3.36,3.36,0,0,1-3.42,3.22c-2.62,0-3.88-2.31-3.88-5,0-3.22,1.62-5.14,3.86-5.14A3.27,3.27,0,0,1,88.78,171.65Z"/><path class="cls-1" d="M92.33,178.36c-.08.26-.24.56-.57.56s-.88-.3-.88-.76a1.53,1.53,0,0,1,.07-.39l2.43-7.88c.3-.95.84-1.16,1.38-1.16s1.06.06,1.4,1.16l2.43,7.88a1.17,1.17,0,0,1,.06.36c0,.56-.59.79-.89.79s-.51-.44-.55-.56l-.61-2H92.93Zm1.06-3.44h2.75L95,171.28c-.09-.29-.17-.31-.24-.31s-.16,0-.25.31Z"/><path class="cls-1" d="M106.83,169a.67.67,0,0,1,.51-.29c.4,0,.77.52.77.9a1,1,0,0,1-.23.6l-2.56,2.92,2.92,4.37a.87.87,0,0,1-.64,1.39.6.6,0,0,1-.49-.28l-2.88-4.28-1.07,1.21v2.53c0,.43-.17.83-.74.83s-.74-.3-.74-.83v-8.54c0-.42.16-.82.73-.82s.75.3.75.82v3.61Z"/><path class="cls-1" d="M116.22,173c.38,0,.64.22.64.72s-.2.73-.64.73h-3.31v2.23c0,.31.13.49.42.49h3.45c.25,0,.65.11.65.75s-.31.76-.65.76h-3.94c-1,0-1.41-.4-1.41-1.66v-6.36c0-1.24.43-1.66,1.41-1.66h3.74c.26,0,.65.11.65.76s-.31.75-.65.75h-3.25c-.28,0-.42.17-.42.49v2Z"/><path class="cls-1" d="M130.47,177.63a.92.92,0,0,1,.2.55.71.71,0,0,1-.64.74.8.8,0,0,1-.55-.34l-.87-1.07a3.21,3.21,0,0,1-2.59,1.41,2.67,2.67,0,0,1-2.59-2.9,3.32,3.32,0,0,1,1.82-2.93,3.38,3.38,0,0,1-.76-2.06,2.1,2.1,0,0,1,2-2.31c1.21,0,1.91,1.09,1.91,2.39a2.76,2.76,0,0,1-1.34,2.41l1.34,1.71c.07-.2.1-.39.24-1a.59.59,0,0,1,.63-.54c.25,0,.7.17.7.6a5.86,5.86,0,0,1-.62,2ZM126,174.22a2.11,2.11,0,0,0-1.11,1.79,1.35,1.35,0,0,0,1.29,1.49,1.94,1.94,0,0,0,1.58-1Zm1.15-3.28c0-.34-.11-1-.67-1s-.7.44-.7,1a3,3,0,0,0,.56,1.5A1.83,1.83,0,0,0,127.15,170.94Z"/><path class="cls-1" d="M142.08,172.77v-3.22c0-.65.36-.82.72-.82s.75.27.75.82v8.54c0,.4-.13.83-.72.83s-.75-.26-.75-.83v-3.82H138.4v3.82c0,.41-.14.83-.72.83s-.75-.26-.75-.83v-8.54c0-.39.13-.82.72-.82s.75.25.75.82v3.22Z"/><path class="cls-1" d="M147.82,178.36c-.08.26-.24.56-.57.56s-.88-.3-.88-.76a1.53,1.53,0,0,1,.07-.39l2.43-7.88c.29-.95.83-1.16,1.37-1.16s1.07.06,1.41,1.16l2.43,7.88a1.17,1.17,0,0,1,.06.36c0,.56-.59.79-.9.79s-.5-.44-.55-.56l-.61-2h-3.66Zm1.06-3.44h2.75l-1.13-3.64c-.09-.29-.18-.31-.25-.31s-.15,0-.24.31Z"/><path class="cls-1" d="M163.14,171.41a.66.66,0,0,1-.71.67.68.68,0,0,1-.73-.58,1.4,1.4,0,0,0-1.59-1.25c-.23,0-1.6,0-1.6,1.13,0,.8.36.93,2.39,1.76,1.78.72,2.47,1.36,2.47,2.75a3,3,0,0,1-3.14,3,3.11,3.11,0,0,1-3.4-2.86.71.71,0,0,1,.77-.73c.61,0,.69.38.78.81a1.69,1.69,0,0,0,1.77,1.25c.81,0,1.71-.34,1.71-1.37,0-.67-.48-.94-1.87-1.49-1.82-.71-3-1.15-3-3a2.77,2.77,0,0,1,3.1-2.83A2.85,2.85,0,0,1,163.14,171.41Z"/><path class="cls-1" d="M171.88,172.77v-3.22c0-.65.36-.82.72-.82s.75.27.75.82v8.54c0,.4-.13.83-.72.83s-.75-.26-.75-.83v-3.82H168.2v3.82c0,.41-.14.83-.72.83s-.75-.26-.75-.83v-8.54c0-.39.13-.82.72-.82s.75.25.75.82v3.22Z"/><path class="cls-1" d="M181.82,173c.39,0,.64.22.64.72s-.19.73-.64.73h-3.3v2.23c0,.31.13.49.41.49h3.45c.26,0,.65.11.65.75s-.3.76-.65.76h-3.93c-1,0-1.41-.4-1.41-1.66v-6.36c0-1.24.43-1.66,1.41-1.66h3.74c.25,0,.65.11.65.76s-.31.75-.65.75h-3.26c-.27,0-.41.17-.41.49v2Z"/><path class="cls-1" d="M189.74,169c2.53,0,3.44,2.29,3.44,4.86,0,1.36-.3,4.82-3.44,4.82h-2.11c-1,0-1.4-.4-1.4-1.66v-6.36c0-1.24.42-1.66,1.4-1.66Zm-1.62,1.51c-.29,0-.42.19-.42.49v5.68c0,.32.14.49.42.49h1.45c1.67,0,2.11-2,2.11-3.32,0-1.85-.69-3.34-2.11-3.34Z"/><path class="cls-1" d="M203.17,178.66c-1,0-1.41-.4-1.41-1.66v-6.36c0-1.24.43-1.66,1.41-1.66h2.55a2.36,2.36,0,0,1,2.49,2.52,2.07,2.07,0,0,1-1.15,2,2.28,2.28,0,0,1,1.47,2.37,2.57,2.57,0,0,1-2.65,2.78Zm.07-5.69h2.29a1.14,1.14,0,0,0,1.18-1.27,1.1,1.1,0,0,0-1.18-1.21h-1.88c-.28,0-.41.19-.41.49Zm0,1.45v2.24c0,.32.14.49.41.49h2a1.3,1.3,0,0,0,1.41-1.39,1.26,1.26,0,0,0-1.43-1.34Z"/><path class="cls-1" d="M216.47,173c.39,0,.64.22.64.72s-.19.73-.64.73h-3.31v2.23c0,.31.14.49.42.49H217c.25,0,.65.11.65.75s-.3.76-.65.76h-3.94c-1,0-1.4-.4-1.4-1.66v-6.36c0-1.24.43-1.66,1.4-1.66h3.75c.25,0,.65.11.65.76s-.32.75-.65.75h-3.26c-.27,0-.42.17-.42.49v2Z"/><path class="cls-1" d="M225.45,173c.39,0,.64.22.64.72s-.19.73-.64.73h-3.31v2.23c0,.31.14.49.42.49H226c.25,0,.65.11.65.75s-.3.76-.65.76h-3.94c-1,0-1.4-.4-1.4-1.66v-6.36c0-1.24.43-1.66,1.4-1.66h3.75c.25,0,.65.11.65.76s-.32.75-.65.75h-3.26c-.27,0-.42.17-.42.49v2Z"/><path class="cls-1" d="M234.5,173.17c.4,0,.65.21.65.71s-.19.73-.65.73h-3.17v3.48c0,.43-.17.83-.74.83s-.74-.3-.74-.83v-7.45c0-1.24.43-1.66,1.41-1.66H235c.26,0,.66.11.66.76s-.31.75-.66.75h-3.26c-.27,0-.41.18-.41.49v2.19Z"/></g></g></svg>